<svg width="361" height="230" viewBox="0 0 361 230" fill="none" xmlns="http://www.w3.org/2000/svg">
<path d="M221.76 183.642C262.161 158.957 246.066 99.8228 286.466 75.1388C287.127 75.5418 287.789 75.9456 288.451 76.3479C297.173 81.6666 305.895 86.986 314.617 92.304C329.376 101.304 344.135 110.304 358.895 119.306C359.556 119.709 360.218 120.112 360.88 120.515C320.479 145.199 336.573 204.332 296.173 229.018C272.03 214.295 247.887 199.571 223.744 184.852C223.082 184.448 222.421 184.047 221.76 183.642Z" fill="#007C9D"/>
<path d="M213.282 187.117C239.535 200.142 265.789 213.164 292.041 226.19C331.805 196.246 310.138 135.822 349.902 105.876C323.65 92.8515 297.396 79.8268 271.144 66.8021C231.378 96.748 253.046 157.17 213.282 187.117Z" fill="#CFE0F6"/>
<path d="M213.282 187.117C239.535 200.142 265.789 213.164 292.041 226.19C331.805 196.246 310.138 135.822 349.902 105.876C323.65 92.8516 297.396 79.8269 271.144 66.8022C231.378 96.7481 253.046 157.17 213.282 187.117Z" fill="#CFE0F6"/>
<path d="M349.902 105.876C349.902 105.876 349.902 105.876 352.06 106.947C312.296 136.893 333.964 197.315 294.199 227.259C293.48 226.903 292.761 226.546 292.042 226.189C331.805 196.245 310.138 135.822 349.902 105.876Z" fill="#93C9E1"/>
<path d="M300.614 96.628C300.103 97.2196 300.249 97.9761 300.917 98.3078C310.777 103.2 320.637 108.092 330.498 112.984C331.167 113.315 332.105 113.097 332.616 112.505C333.126 111.914 333.015 111.173 332.346 110.841C322.486 105.949 312.625 101.058 302.765 96.166C302.098 95.8342 301.125 96.0364 300.614 96.628Z" fill="#93C9E1"/>
<path d="M294.409 105.351C294.027 106.006 294.272 106.813 294.941 107.145C304.801 112.036 314.661 116.928 324.522 121.82C325.191 122.152 326.029 121.883 326.412 121.229C326.794 120.573 326.576 119.781 325.907 119.448C316.046 114.556 306.187 109.664 296.326 104.773C295.658 104.441 294.792 104.695 294.409 105.351Z" fill="#93C9E1"/>
<path d="M289.795 114.862C289.512 115.567 289.835 116.411 290.504 116.743C300.364 121.635 310.224 126.527 320.084 131.419C320.752 131.75 321.514 131.444 321.797 130.739C322.08 130.034 321.777 129.2 321.109 128.868C311.249 123.977 301.388 119.085 291.528 114.192C290.86 113.861 290.078 114.158 289.795 114.862Z" fill="#93C9E1"/>
<path d="M286.374 124.966C286.162 125.707 286.54 126.578 287.209 126.909C297.069 131.802 306.929 136.693 316.79 141.586C317.458 141.918 318.165 141.584 318.377 140.845C318.588 140.104 318.225 139.239 317.555 138.907C307.695 134.016 297.835 129.124 287.975 124.231C287.306 123.899 286.586 124.226 286.374 124.966Z" fill="#93C9E1"/>
<path d="M250.41 120.453C250.246 121.217 250.656 122.106 251.325 122.438C266.779 130.104 282.232 137.771 297.686 145.438C298.355 145.77 299.027 145.42 299.193 144.657C299.358 143.893 298.953 143.008 298.284 142.676C282.83 135.009 267.377 127.343 251.924 119.675C251.254 119.344 250.575 119.691 250.41 120.453Z" fill="#93C9E1"/>
<path d="M247.975 132.358C247.821 133.126 248.236 134.017 248.905 134.349C269.779 144.704 290.652 155.061 311.526 165.417C312.196 165.747 312.864 165.395 313.018 164.627C313.172 163.859 312.755 162.965 312.086 162.633C291.213 152.278 270.339 141.922 249.466 131.566C248.796 131.235 248.13 131.589 247.975 132.358Z" fill="#93C9E1"/>
<path d="M245.431 144.208C245.251 144.965 245.644 145.843 246.313 146.175C267.186 156.531 288.06 166.887 308.933 177.242C309.603 177.575 310.294 177.232 310.473 176.477C310.653 175.722 310.251 174.837 309.582 174.505C288.709 164.149 267.835 153.793 246.961 143.437C246.293 143.106 245.61 143.452 245.431 144.208Z" fill="#93C9E1"/>
<path d="M242.235 155.737C241.997 156.462 242.337 157.315 243.006 157.648C263.88 168.004 284.753 178.358 305.627 188.714C306.295 189.046 307.04 188.731 307.277 188.004C307.517 187.279 307.159 186.416 306.491 186.083C285.617 175.728 264.744 165.374 243.87 155.018C243.201 154.684 242.474 155.009 242.235 155.737Z" fill="#93C9E1"/>
<path d="M237.846 166.671C237.513 167.351 237.773 168.163 238.444 168.494C259.316 178.85 280.19 189.207 301.063 199.563C301.732 199.894 302.557 199.619 302.889 198.94C303.222 198.26 302.937 197.433 302.269 197.101C281.395 186.746 260.522 176.391 239.648 166.035C238.98 165.703 238.179 165.992 237.846 166.671Z" fill="#93C9E1"/>
<path d="M243.138 182.409C242.676 183.023 242.827 183.782 243.497 184.114C260.564 192.582 277.633 201.05 294.701 209.519C295.369 209.851 296.302 209.629 296.764 209.012C297.227 208.398 297.044 207.62 296.375 207.29C279.307 198.82 262.24 190.354 245.171 181.887C244.501 181.554 243.6 181.793 243.138 182.409Z" fill="#93C9E1"/>
<path opacity="0.5" d="M327.231 139.883C321.151 122.852 317.263 101.111 319.156 90.6229C329.405 95.7077 339.654 100.792 349.902 105.877C337.826 114.971 331.416 126.875 327.231 139.883Z" fill="white"/>
<path opacity="0.4" d="M213.282 187.117C230.065 174.479 235.905 156.41 240.039 137.493C243.176 148.536 247.237 162.837 248.679 175.187C250.338 187.641 249.375 198.145 247.429 204.057C236.046 198.411 224.664 192.762 213.282 187.117Z" fill="#93C9E1"/>
<path d="M268.246 118.763L274.085 113.964L280.275 117.388L278.396 99.8176L266.365 101.192L268.246 118.763Z" fill="#F15A29"/>
<path opacity="0.4" d="M268.246 118.763L274.085 113.964L280.275 117.388L278.396 99.8176L266.365 101.192L268.246 118.763Z" fill="#93C9E1"/>
<path d="M254.229 104.78L261.05 107.913L260.817 115.094L275.382 105.419L268.794 95.1052L254.229 104.78Z" fill="#F15A29"/>
<path d="M262.706 89.9446C259.378 96.8625 262.18 105.2 268.963 108.566C275.746 111.93 283.943 109.05 287.27 102.132C290.597 95.2136 287.795 86.8765 281.012 83.5118C274.229 80.1457 266.033 83.026 262.706 89.9446Z" fill="#F7BD33"/>
<path d="M280.317 84.9563C286.318 87.9331 288.796 95.3073 285.853 101.428C282.909 107.548 275.659 110.097 269.658 107.12C263.658 104.143 261.179 96.7683 264.123 90.6486C267.066 84.5274 274.317 81.9796 280.317 84.9563ZM270.099 106.204C275.603 108.935 282.255 106.597 284.955 100.983C287.655 95.3684 285.381 88.6024 279.877 85.8718C274.373 83.1412 267.72 85.4788 265.021 91.0933C262.32 96.7078 264.594 103.473 270.099 106.204Z" fill="#F15A29"/>
<path d="M271.292 91.6114L276.46 91.6136L279.405 95.6361C279.793 95.8282 279.952 96.3054 279.762 96.7005L276.586 103.304C276.396 103.7 275.929 103.864 275.54 103.672L273.746 102.782L274.855 100.475C275.468 99.2008 274.953 97.665 273.702 97.0453C272.453 96.4249 270.944 96.9553 270.331 98.2299L269.222 100.537L267.428 99.6471C267.04 99.4542 266.88 98.9784 267.07 98.5826L270.246 91.9785C270.436 91.5841 270.904 91.4193 271.292 91.6114Z" fill="#F15A29"/>
<path d="M268.226 92.0966L276.254 88.9745C277.076 88.655 277.993 89.0731 278.304 89.908C278.313 89.931 278.315 89.954 278.322 89.9778C278.334 90.003 278.349 90.0246 278.358 90.0512L281.399 98.2164C281.71 99.052 281.297 99.9876 280.475 100.307C279.654 100.627 278.736 100.209 278.425 99.3737L275.894 92.5767L269.352 95.1223C268.53 95.4419 267.612 95.0237 267.302 94.1881C266.991 93.3525 267.405 92.4162 268.226 92.0966Z" fill="#F15A29"/>
<path d="M139.119 183.642C98.719 158.957 114.814 99.8228 74.4135 75.1388C73.7528 75.5418 73.0906 75.9456 72.4285 76.3479C63.707 81.6666 54.9848 86.986 46.2626 92.304C31.5034 101.304 16.7442 110.304 1.98497 119.306C1.32355 119.709 0.661418 120.112 0 120.515C40.4005 145.199 24.3062 204.332 64.7067 229.018C88.8495 214.295 112.992 199.571 137.135 184.852C137.797 184.448 138.458 184.047 139.119 183.642Z" fill="#007C9D"/>
<path d="M147.598 187.117C121.345 200.142 95.0909 213.164 68.8385 226.19C29.0743 196.246 50.7413 135.822 10.9771 105.876C37.2294 92.8515 63.4831 79.8268 89.7355 66.8021C129.501 96.748 107.833 157.17 147.598 187.117Z" fill="#CFE0F6"/>
<path d="M147.598 187.117C121.345 200.142 95.0909 213.164 68.8385 226.19C29.0743 196.246 50.7413 135.822 10.9771 105.876C37.2294 92.8516 63.4831 79.8269 89.7355 66.8022C129.501 96.7481 107.833 157.17 147.598 187.117Z" fill="#CFE0F6"/>
<path d="M10.9769 105.876C10.9769 105.876 10.9769 105.876 8.81921 106.947C48.5835 136.893 26.9157 197.315 66.68 227.259C67.399 226.903 68.118 226.546 68.837 226.189C29.0749 196.245 50.7412 135.822 10.9769 105.876Z" fill="#93C9E1"/>
<path d="M60.2653 96.628C60.7763 97.2196 60.6309 97.9761 59.963 98.3078C50.1022 103.2 40.2428 108.092 30.382 112.984C29.7126 113.315 28.7741 113.097 28.2631 112.505C27.7536 111.914 27.8644 111.173 28.5338 110.841C38.3938 105.949 48.2547 101.058 58.1148 96.166C58.7819 95.8342 59.755 96.0364 60.2653 96.628Z" fill="#93C9E1"/>
<path d="M66.47 105.351C66.8529 106.006 66.6075 106.813 65.9388 107.145C56.078 112.036 46.2187 116.928 36.3578 121.82C35.6885 122.152 34.85 121.883 34.4672 121.229C34.085 120.573 34.3031 119.781 34.9724 119.448C44.8332 114.556 54.6926 109.664 64.5534 104.773C65.2213 104.441 66.0878 104.695 66.47 105.351Z" fill="#93C9E1"/>
<path d="M71.0849 114.862C71.3677 115.567 71.0446 116.411 70.3759 116.743C60.5159 121.635 50.6558 126.527 40.7957 131.419C40.127 131.75 39.3656 131.444 39.0827 130.739C38.7999 130.034 39.1022 129.2 39.7708 128.868C49.6309 123.977 59.491 119.085 69.3518 114.192C70.0197 113.861 70.8013 114.158 71.0849 114.862Z" fill="#93C9E1"/>
<path d="M74.505 124.966C74.7173 125.707 74.3394 126.578 73.6708 126.909C63.8107 131.802 53.9506 136.693 44.0898 141.586C43.4212 141.918 42.7144 141.584 42.5021 140.845C42.2912 140.104 42.6547 139.239 43.324 138.907C53.1841 134.016 63.0442 129.124 72.9043 124.231C73.5729 123.899 74.2934 124.226 74.505 124.966Z" fill="#93C9E1"/>
<path d="M110.469 120.453C110.634 121.217 110.224 122.106 109.554 122.438C94.1005 130.104 78.6475 137.771 63.1938 145.438C62.5245 145.77 61.8523 145.42 61.6867 144.657C61.5219 143.893 61.9264 143.008 62.5957 142.676C78.0494 135.009 93.5024 127.343 108.955 119.675C109.625 119.344 110.304 119.691 110.469 120.453Z" fill="#93C9E1"/>
<path d="M112.905 132.358C113.059 133.126 112.643 134.017 111.974 134.349C91.1009 144.704 70.2278 155.061 49.3539 165.417C48.6838 165.747 48.0159 165.395 47.8619 164.627C47.7071 163.859 48.1246 162.965 48.7932 162.633C69.6664 152.278 90.5403 141.922 111.413 131.566C112.083 131.235 112.75 131.589 112.905 132.358Z" fill="#93C9E1"/>
<path d="M115.449 144.208C115.628 144.965 115.236 145.843 114.566 146.175C93.6933 156.531 72.8194 166.887 51.9462 177.242C51.2769 177.575 50.5853 177.232 50.406 176.477C50.2268 175.722 50.6284 174.837 51.2971 174.505C72.1709 164.149 93.0441 153.793 113.918 143.437C114.587 143.106 115.27 143.452 115.449 144.208Z" fill="#93C9E1"/>
<path d="M118.644 155.737C118.882 156.462 118.542 157.315 117.873 157.648C96.9996 168.004 76.1264 178.358 55.2525 188.714C54.5846 189.046 53.8397 188.731 53.6022 188.004C53.3625 187.279 53.7202 186.416 54.3888 186.083C75.2627 175.728 96.1352 165.374 117.009 155.018C117.678 154.684 118.405 155.009 118.644 155.737Z" fill="#93C9E1"/>
<path d="M123.034 166.671C123.366 167.351 123.107 168.163 122.436 168.494C101.563 178.85 80.6895 189.207 59.8163 199.563C59.147 199.894 58.3229 199.619 57.9904 198.94C57.6579 198.26 57.9422 197.433 58.6101 197.101C79.484 186.746 100.357 176.391 121.231 166.035C121.9 165.703 122.7 165.992 123.034 166.671Z" fill="#93C9E1"/>
<path d="M117.742 182.409C118.204 183.023 118.052 183.782 117.383 184.114C100.315 192.582 83.2466 201.05 66.1786 209.519C65.51 209.851 64.5772 209.629 64.1159 209.012C63.6524 208.398 63.8352 207.62 64.5045 207.29C81.5726 198.82 98.6399 190.354 115.709 181.887C116.379 181.554 117.28 181.793 117.742 182.409Z" fill="#93C9E1"/>
<path opacity="0.5" d="M33.6488 139.883C39.7282 122.852 43.6161 101.111 41.7233 90.6229C31.4745 95.7077 21.2258 100.792 10.9771 105.877C23.0531 114.971 29.4637 126.875 33.6488 139.883Z" fill="white"/>
<path opacity="0.4" d="M147.598 187.117C130.815 174.479 124.975 156.41 120.84 137.493C117.704 148.536 113.642 162.837 112.2 175.187C110.542 187.641 111.504 198.145 113.451 204.057C124.834 198.411 136.215 192.762 147.598 187.117Z" fill="#93C9E1"/>
<path d="M92.6338 118.763L86.7948 113.964L80.6045 117.388L82.4837 99.8176L94.5144 101.192L92.6338 118.763Z" fill="#F15A29"/>
<path opacity="0.4" d="M92.6338 118.763L86.7948 113.964L80.6045 117.388L82.4837 99.8176L94.5144 101.192L92.6338 118.763Z" fill="#93C9E1"/>
<path d="M106.65 104.78L99.8296 107.913L100.062 115.094L85.4972 105.419L92.0855 95.1052L106.65 104.78Z" fill="#F15A29"/>
<path d="M98.1734 89.9446C101.501 96.8625 98.6996 105.2 91.9162 108.566C85.1336 111.93 76.9368 109.05 73.6096 102.132C70.2823 95.2136 73.0842 86.8765 79.8675 83.5118C86.6501 80.1457 94.8462 83.026 98.1734 89.9446Z" fill="#F7BD33"/>
<path d="M80.5621 84.9563C74.5618 87.9331 72.0838 95.3073 75.0268 101.428C77.9704 107.548 85.2208 110.097 91.2218 107.12C97.2213 104.143 99.7 96.7683 96.7564 90.6486C93.8135 84.5274 86.5623 81.9796 80.5621 84.9563ZM90.7806 106.204C85.2762 108.935 78.6246 106.597 75.925 100.983C73.2246 95.3684 75.4982 88.6024 81.0025 85.8718C86.5069 83.1412 93.1593 85.4788 95.8589 91.0933C98.5593 96.7078 96.2857 103.473 90.7806 106.204Z" fill="#F15A29"/>
<path d="M89.5873 91.6114L84.4191 91.6136L81.4747 95.6361C81.0868 95.8282 80.927 96.3054 81.117 96.7005L84.2931 103.304C84.4831 103.7 84.9509 103.864 85.3396 103.672L87.1331 102.782L86.024 100.475C85.4116 99.2008 85.9269 97.665 87.177 97.0453C88.4264 96.4249 89.9357 96.9553 90.5489 98.2299L91.658 100.537L93.4515 99.6471C93.8394 99.4542 93.9999 98.9784 93.8092 98.5826L90.6331 91.9785C90.4438 91.5841 89.9753 91.4193 89.5873 91.6114Z" fill="#F15A29"/>
<path d="M92.6534 92.0966L84.6257 88.9745C83.8031 88.655 82.8861 89.0731 82.5752 89.908C82.5666 89.931 82.5644 89.954 82.5572 89.9778C82.5457 90.003 82.5306 90.0246 82.5213 90.0512L79.4805 98.2164C79.1695 99.052 79.5826 99.9876 80.4046 100.307C81.2258 100.627 82.1434 100.209 82.4543 99.3737L84.9856 92.5767L91.5278 95.1223C92.349 95.4419 93.2673 95.0237 93.5775 94.1881C93.8884 93.3525 93.4746 92.4162 92.6534 92.0966Z" fill="#F15A29"/>
<path d="M257.205 222.674C257.205 226.72 253.947 230 249.927 230H110.666C106.646 230 103.388 226.72 103.388 222.674V7.32454C103.388 3.27902 106.646 0 110.666 0H249.927C253.947 0 257.205 3.27902 257.205 7.32454V222.674Z" fill="#33314F"/>
<path d="M249.443 199.868C249.443 203.973 246.113 207.302 242.007 207.302H118.586C114.48 207.302 111.152 203.973 111.152 199.868V19.9417C111.152 15.835 114.481 12.5063 118.586 12.5063H242.007C246.113 12.5063 249.443 15.835 249.443 19.9417V199.868Z" fill="#CFE0F6"/>
<path d="M237.969 112.12C230.82 93.8872 220.809 101.038 207.939 84.2351C195.778 68.3567 190.647 64.9201 181.265 65.2994C171.883 64.9194 164.815 68.3567 152.654 84.2351C139.784 101.038 129.775 93.8872 122.624 112.12C114.481 132.887 130.847 145.368 130.847 145.368H178.625H181.969H229.748C229.748 145.368 246.113 132.887 237.969 112.12Z" fill="white"/>
<path d="M232.443 57.6616H231.385C231.283 53.9609 228.258 50.9884 224.532 50.9884C220.803 50.9884 217.779 53.9609 217.676 57.6616H216.618C214.039 57.6616 211.948 59.7531 211.948 62.3333C211.948 64.9135 214.039 67.0043 216.618 67.0043H232.443C235.022 67.0043 237.114 64.9135 237.114 62.3333C237.114 59.7531 235.022 57.6616 232.443 57.6616Z" fill="#93C9E1"/>
<path d="M144.842 37.7117H143.783C143.682 34.0102 140.655 31.0385 136.929 31.0385C133.203 31.0385 130.178 34.0102 130.075 37.7117H129.017C126.437 37.7117 124.346 39.8032 124.346 42.3834C124.346 44.9636 126.437 47.0543 129.017 47.0543H144.843C147.423 47.0543 149.514 44.9628 149.514 42.3834C149.514 39.8032 147.422 37.7117 144.842 37.7117Z" fill="#93C9E1"/>
<path d="M153.683 56.4195L142.29 63.7309L155.574 84.4305L166.967 77.1191L153.683 56.4195Z" fill="#93C9E1"/>
<path d="M160.256 54.1386C161.82 56.5762 161.112 59.82 158.676 61.3825L144.715 70.3415C142.278 71.9054 139.034 71.1965 137.471 68.7603C135.907 66.3233 136.615 63.0796 139.052 61.5156L153.012 52.5566C155.448 50.9934 158.693 51.7016 160.256 54.1386Z" fill="#007C9D"/>
<path d="M131.36 145.495C131.36 146.266 130.734 146.892 129.962 146.892C129.19 146.892 128.564 146.266 128.564 145.495V121.598C128.564 120.825 129.19 120.2 129.962 120.2C130.734 120.2 131.36 120.825 131.36 121.598V145.495Z" fill="#33314F"/>
<path d="M137.424 114.379C138.171 113.101 138.606 111.618 138.606 110.031C138.606 105.257 134.735 101.387 129.962 101.387C125.188 101.387 121.318 105.256 121.318 110.031C121.318 111.619 121.754 113.101 122.501 114.379C120.249 116.194 118.826 118.808 118.826 121.725C118.826 127.202 123.812 131.641 129.963 131.641C136.113 131.641 141.099 127.202 141.099 121.725C141.099 118.808 139.675 116.194 137.424 114.379Z" fill="#00A79D"/>
<path d="M232.03 145.495C232.03 146.266 231.404 146.892 230.632 146.892C229.86 146.892 229.234 146.266 229.234 145.495V121.598C229.234 120.825 229.86 120.2 230.632 120.2C231.404 120.2 232.03 120.825 232.03 121.598V145.495Z" fill="#33314F"/>
<path d="M238.092 114.379C238.84 113.101 239.275 111.618 239.275 110.031C239.275 105.257 235.405 101.387 230.631 101.387C225.857 101.387 221.987 105.256 221.987 110.031C221.987 111.619 222.422 113.101 223.17 114.379C220.918 116.194 219.495 118.808 219.495 121.725C219.495 127.202 224.481 131.641 230.632 131.641C236.782 131.641 241.769 127.202 241.769 121.725C241.768 118.808 240.344 116.194 238.092 114.379Z" fill="#00A79D"/>
<path d="M180.728 61.4752L146.79 86.6328V142.57C146.79 144.677 148.498 146.385 150.603 146.385H210.599C212.707 146.385 214.413 144.677 214.413 142.57V85.8246L180.728 61.4752Z" fill="#93C9E1"/>
<path d="M214.413 102.277H204.179C202.072 102.277 200.366 103.984 200.366 106.09C200.366 108.196 202.072 109.903 204.179 109.903H214.413V102.277Z" fill="#007C9D"/>
<path d="M146.79 114.861H154.988C156.883 114.861 158.42 113.324 158.42 111.428C158.42 109.533 156.883 107.997 154.988 107.997H146.79V114.861Z" fill="#007C9D"/>
<path d="M214.413 131.258H206.848C204.952 131.258 203.415 132.794 203.415 134.689C203.415 136.585 204.952 138.122 206.848 138.122H214.413V131.258Z" fill="#007C9D"/>
<path d="M159.183 136.215H171.386C173.281 136.215 174.817 134.679 174.817 132.783C174.817 130.887 173.281 129.35 171.386 129.35H159.183C157.287 129.35 155.751 130.887 155.751 132.783C155.751 134.679 157.287 136.215 159.183 136.215Z" fill="#007C9D"/>
<path d="M180.601 107.997C172.809 107.997 166.492 114.314 166.492 122.106V146.385H194.709V122.105C194.71 114.314 188.394 107.997 180.601 107.997Z" fill="#33314F"/>
<path d="M140.187 98.4644C137.723 98.4644 135.291 97.3301 133.723 95.1897C131.109 91.6227 131.881 86.6114 135.447 83.9974L176.377 53.9996C179.222 51.9132 183.101 51.9355 185.921 54.0572L225.834 84.0542C229.369 86.7114 230.081 91.7314 227.424 95.2667C224.766 98.8033 219.748 99.5137 216.212 96.8572L181.05 70.4307L144.915 96.9141C143.488 97.9598 141.83 98.4644 140.187 98.4644Z" fill="#007C9D"/>
<path d="M237.291 145.367C237.291 146.718 236.495 147.814 235.511 147.814H125.692C124.709 147.814 123.911 146.718 123.911 145.367C123.911 144.016 124.709 142.92 125.692 142.92H235.512C236.495 142.92 237.291 144.016 237.291 145.367Z" fill="#00A79D"/>
<path d="M191.786 92.1081C191.786 98.2847 186.779 103.293 180.602 103.293C174.425 103.293 169.417 98.2847 169.417 92.1081C169.417 85.9301 174.425 80.923 180.602 80.923C186.779 80.923 191.786 85.9308 191.786 92.1081Z" fill="#33314F"/>
<path d="M182.89 81.1592C182.15 81.0059 181.385 80.9231 180.601 80.9231C179.817 80.9231 179.052 81.0059 178.313 81.1592V89.8202H169.652C169.499 90.5594 169.417 91.3237 169.417 92.1082C169.417 92.8927 169.498 93.657 169.652 94.3955H178.313V103.057C179.052 103.211 179.817 103.293 180.601 103.293C181.385 103.293 182.15 103.211 182.89 103.057V94.3955H191.551C191.704 93.657 191.786 92.8927 191.786 92.1082C191.786 91.3237 191.705 90.5594 191.55 89.8202H182.89V81.1592Z" fill="#007C9D"/>
<path d="M174.576 127.826C174.576 129.301 173.381 130.496 171.906 130.496C170.433 130.496 169.237 129.301 169.237 127.826C169.237 126.352 170.433 125.157 171.906 125.157C173.381 125.158 174.576 126.353 174.576 127.826Z" fill="#00A79D"/>
<path d="M175.944 26.6963C175.944 26.6956 175.943 26.6949 175.943 26.6949C175.943 26.6942 175.943 26.6927 175.943 26.6927C175.902 26.5905 175.84 26.497 175.761 26.4164C175.672 26.3235 175.564 26.2523 175.446 26.2026C175.33 26.1529 175.202 26.1234 175.066 26.1177C174.954 26.1126 174.84 26.1256 174.731 26.1558C174.73 26.1558 174.73 26.1558 174.73 26.1558C174.614 26.1882 174.508 26.2386 174.415 26.3034L166.135 31.992C166.098 32.0157 166.062 32.0438 166.03 32.0733C165.948 32.1446 165.884 32.2252 165.837 32.313C165.773 32.4296 165.743 32.5548 165.743 32.6793V32.68C165.743 32.8038 165.774 32.9305 165.837 33.0471C165.883 33.1342 165.947 33.2148 166.029 33.2868C166.061 33.3163 166.098 33.3436 166.135 33.3681L174.415 39.0574C174.494 39.1121 174.582 39.1568 174.678 39.1884L174.678 39.1891C174.789 39.2258 174.906 39.2438 175.022 39.2438C175.037 39.2438 175.052 39.2438 175.066 39.2424C175.205 39.2374 175.336 39.2064 175.453 39.1553C175.567 39.1057 175.672 39.0351 175.761 38.9452C175.84 38.8645 175.902 38.7703 175.943 38.6681C175.943 38.6673 175.943 38.6666 175.943 38.6666C175.943 38.6666 175.944 38.6659 175.944 38.6645C175.978 38.5738 175.995 38.4795 175.995 38.3859C175.995 38.3838 175.995 38.3802 175.995 38.3773V26.9813C175.995 26.9792 175.995 26.9756 175.995 26.9734C175.996 26.8806 175.979 26.787 175.944 26.6963Z" fill="#F7BD33"/>
<path d="M184.649 38.6651L184.65 38.6665L184.651 38.6672V38.668C184.691 38.7702 184.753 38.8637 184.832 38.9443C184.921 39.0365 185.029 39.1084 185.147 39.1574C185.262 39.207 185.39 39.2373 185.526 39.2423C185.638 39.2473 185.752 39.2344 185.862 39.2042C185.862 39.2042 185.862 39.2042 185.863 39.2042C185.979 39.1718 186.084 39.1214 186.177 39.0566L194.458 33.3673C194.496 33.3428 194.531 33.3154 194.564 33.2867C194.645 33.2147 194.71 33.1341 194.756 33.047C194.82 32.9304 194.85 32.8052 194.85 32.6807V32.6799C194.85 32.5561 194.82 32.4302 194.756 32.3143C194.71 32.2265 194.646 32.1459 194.565 32.0746C194.532 32.0444 194.495 32.0171 194.458 31.9926L186.177 26.304C186.1 26.2486 186.011 26.2039 185.916 26.1723H185.914C185.804 26.1356 185.688 26.1183 185.573 26.1183C185.557 26.1183 185.542 26.1183 185.528 26.119C185.388 26.1241 185.258 26.155 185.141 26.2061C185.025 26.2558 184.92 26.3263 184.833 26.4163C184.754 26.4969 184.692 26.5911 184.651 26.6941L184.651 26.6955L184.65 26.6969C184.615 26.7883 184.597 26.8819 184.597 26.9755C184.597 26.9784 184.597 26.9805 184.597 26.9834V38.3786C184.597 38.3815 184.597 38.3851 184.597 38.3873C184.596 38.4801 184.613 38.5744 184.649 38.6651Z" fill="#F7BD33"/>
<path d="M169.206 35.4775L174.416 39.0574C174.495 39.1121 174.583 39.1567 174.678 39.1884L174.679 39.1891H174.68C174.79 39.2258 174.907 39.2438 175.022 39.2438C175.038 39.2438 175.053 39.2438 175.066 39.2424C175.205 39.2373 175.337 39.2064 175.454 39.1553C175.568 39.1056 175.673 39.0351 175.762 38.9451C175.841 38.8645 175.903 38.7702 175.944 38.668V38.6666C175.944 38.6666 175.944 38.6659 175.944 38.6644C175.979 38.5738 175.996 38.4795 175.996 38.3859V31.3169C174.065 33.2061 171.733 34.6204 169.206 35.4775Z" fill="#F1A429"/>
<path d="M185.474 31.4248C185.168 31.119 184.878 30.7987 184.596 30.4726V38.3866C184.596 38.4802 184.613 38.5745 184.649 38.6652C184.649 38.6659 184.649 38.6666 184.649 38.6666C184.649 38.6666 184.649 38.6673 184.65 38.6673C184.69 38.7695 184.752 38.8638 184.831 38.9444C184.92 39.0365 185.028 39.1085 185.147 39.1574C185.261 39.2071 185.389 39.2373 185.525 39.2424C185.637 39.2474 185.751 39.2345 185.861 39.2042C185.861 39.2042 185.861 39.2042 185.863 39.2042C185.978 39.1718 186.084 39.1215 186.177 39.0567L191.513 35.3905C189.269 34.4951 187.204 33.155 185.474 31.4248Z" fill="#F1A429"/>
<path d="M149.01 157.123C148.919 156.84 148.672 156.637 148.376 156.6L144.895 156.178L143.418 152.997C143.293 152.728 143.023 152.556 142.726 152.556C142.43 152.556 142.159 152.728 142.034 152.997L140.558 156.178L137.076 156.6C136.78 156.637 136.533 156.84 136.442 157.123C136.35 157.405 136.43 157.715 136.648 157.918L139.217 160.304L138.541 163.745C138.485 164.037 138.601 164.335 138.842 164.51C139.083 164.683 139.402 164.703 139.661 164.558L142.726 162.854L145.791 164.558C145.906 164.622 146.035 164.655 146.162 164.655C146.32 164.655 146.477 164.606 146.61 164.51C146.851 164.335 146.967 164.037 146.91 163.745L146.235 160.304L148.804 157.918C149.022 157.715 149.103 157.405 149.01 157.123Z" fill="#F7BD33"/>
<path d="M148.376 156.6L145.162 156.211C144.902 156.519 144.636 156.82 144.356 157.1C142.841 158.617 141.064 159.836 139.136 160.717L138.541 163.745C138.485 164.038 138.601 164.335 138.842 164.51C139.083 164.683 139.402 164.703 139.661 164.558L142.726 162.854L145.791 164.558C145.906 164.622 146.034 164.655 146.162 164.655C146.32 164.655 146.477 164.606 146.61 164.51C146.851 164.335 146.967 164.038 146.91 163.745L146.235 160.304L148.804 157.918C149.022 157.715 149.103 157.405 149.01 157.123C148.919 156.84 148.671 156.637 148.376 156.6Z" fill="#F1A429"/>
<path d="M168.116 157.123C168.025 156.84 167.778 156.637 167.482 156.6L164.001 156.178L162.525 152.997C162.4 152.728 162.13 152.556 161.832 152.556C161.536 152.556 161.265 152.728 161.14 152.997L159.664 156.178L156.182 156.6C155.887 156.637 155.64 156.84 155.548 157.123C155.456 157.405 155.536 157.715 155.754 157.918L158.323 160.304L157.647 163.745C157.591 164.037 157.707 164.335 157.948 164.51C158.188 164.683 158.508 164.703 158.767 164.558L161.832 162.854L164.897 164.558C165.012 164.622 165.141 164.655 165.268 164.655C165.426 164.655 165.583 164.606 165.716 164.51C165.957 164.335 166.074 164.037 166.017 163.745L165.341 160.304L167.91 157.918C168.128 157.715 168.208 157.405 168.116 157.123Z" fill="#F7BD33"/>
<path d="M167.482 156.6L164.268 156.211C164.008 156.519 163.742 156.82 163.462 157.1C161.947 158.617 160.17 159.836 158.241 160.717L157.647 163.745C157.591 164.038 157.707 164.335 157.948 164.51C158.188 164.683 158.508 164.703 158.767 164.558L161.831 162.854L164.897 164.558C165.012 164.622 165.141 164.655 165.268 164.655C165.426 164.655 165.583 164.606 165.716 164.51C165.957 164.335 166.073 164.038 166.017 163.745L165.341 160.304L167.909 157.918C168.127 157.715 168.207 157.405 168.115 157.123C168.025 156.84 167.778 156.637 167.482 156.6Z" fill="#F1A429"/>
<path d="M187.222 157.123C187.132 156.84 186.884 156.637 186.588 156.6L183.107 156.178L181.631 152.997C181.506 152.728 181.236 152.556 180.938 152.556C180.642 152.556 180.371 152.728 180.246 152.997L178.77 156.178L175.289 156.6C174.993 156.637 174.746 156.84 174.655 157.123C174.562 157.405 174.642 157.715 174.861 157.918L177.43 160.304L176.754 163.745C176.698 164.037 176.814 164.335 177.055 164.51C177.295 164.683 177.615 164.703 177.874 164.558L180.939 162.854L184.004 164.558C184.119 164.622 184.248 164.655 184.375 164.655C184.533 164.655 184.69 164.606 184.823 164.51C185.064 164.335 185.18 164.037 185.124 163.745L184.448 160.304L187.016 157.918C187.234 157.715 187.314 157.405 187.222 157.123Z" fill="#F7BD33"/>
<path d="M186.587 156.6L183.373 156.211C183.113 156.519 182.847 156.82 182.568 157.1C181.052 158.617 179.276 159.836 177.348 160.717L176.753 163.745C176.696 164.038 176.813 164.335 177.053 164.51C177.294 164.683 177.613 164.703 177.872 164.558L180.938 162.854L184.002 164.558C184.117 164.622 184.246 164.655 184.374 164.655C184.531 164.655 184.689 164.606 184.821 164.51C185.062 164.335 185.179 164.038 185.122 163.745L184.446 160.304L187.015 157.918C187.233 157.715 187.313 157.405 187.222 157.123C187.131 156.84 186.884 156.637 186.587 156.6Z" fill="#F1A429"/>
<path d="M206.328 157.123C206.237 156.84 205.99 156.637 205.694 156.6L202.213 156.178L200.737 152.997C200.611 152.728 200.341 152.556 200.043 152.556C199.748 152.556 199.476 152.728 199.352 152.997L197.875 156.178L194.394 156.6C194.098 156.637 193.851 156.84 193.76 157.123C193.667 157.405 193.747 157.715 193.966 157.918L196.535 160.304L195.859 163.745C195.803 164.037 195.919 164.335 196.161 164.51C196.4 164.683 196.72 164.703 196.98 164.558L200.044 162.854L203.109 164.558C203.225 164.622 203.353 164.655 203.481 164.655C203.639 164.655 203.796 164.606 203.928 164.51C204.17 164.335 204.286 164.037 204.229 163.745L203.553 160.304L206.122 157.918C206.34 157.715 206.421 157.405 206.328 157.123Z" fill="#F7BD33"/>
<path d="M205.694 156.6L202.479 156.211C202.22 156.519 201.953 156.82 201.673 157.1C200.158 158.617 198.382 159.836 196.453 160.717L195.858 163.745C195.802 164.038 195.919 164.335 196.16 164.51C196.399 164.683 196.72 164.703 196.979 164.558L200.043 162.854L203.109 164.558C203.224 164.622 203.353 164.655 203.48 164.655C203.638 164.655 203.795 164.606 203.928 164.51C204.169 164.335 204.285 164.038 204.228 163.745L203.553 160.304L206.121 157.918C206.34 157.715 206.42 157.405 206.327 157.123C206.237 156.84 205.99 156.637 205.694 156.6Z" fill="#F1A429"/>
<path d="M225.434 157.123C225.343 156.84 225.096 156.637 224.8 156.6L221.319 156.178L219.842 152.997C219.717 152.728 219.447 152.556 219.149 152.556C218.853 152.556 218.582 152.728 218.457 152.997L216.981 156.178L213.499 156.6C213.204 156.637 212.956 156.84 212.865 157.123C212.773 157.405 212.853 157.715 213.072 157.918L215.639 160.304L214.964 163.745C214.908 164.037 215.025 164.335 215.265 164.51C215.506 164.683 215.825 164.703 216.084 164.558L219.149 162.854L222.215 164.558C222.33 164.622 222.459 164.655 222.586 164.655C222.744 164.655 222.901 164.606 223.034 164.51C223.275 164.335 223.391 164.037 223.335 163.745L222.659 160.304L225.227 157.918C225.446 157.715 225.525 157.405 225.434 157.123Z" fill="#F7BD33"/>
<path d="M224.8 156.6L221.585 156.211C221.326 156.519 221.059 156.82 220.78 157.1C219.265 158.617 217.488 159.836 215.56 160.717L214.965 163.745C214.909 164.038 215.026 164.335 215.266 164.51C215.506 164.683 215.826 164.703 216.085 164.558L219.15 162.854L222.215 164.558C222.331 164.622 222.459 164.655 222.587 164.655C222.744 164.655 222.902 164.606 223.035 164.51C223.276 164.335 223.391 164.038 223.335 163.745L222.66 160.304L225.228 157.918C225.446 157.715 225.526 157.405 225.434 157.123C225.343 156.84 225.096 156.637 224.8 156.6Z" fill="#F1A429"/>
<path d="M228.458 182.36C228.458 188.552 223.437 193.573 217.245 193.573H143.349C137.155 193.573 132.135 188.552 132.135 182.36C132.135 176.168 137.155 171.147 143.349 171.147H217.245C223.437 171.147 228.458 176.168 228.458 182.36Z" fill="#00A79D"/>
<path opacity="0.5" d="M151.399 15.9029H244.919C246.366 15.9029 247.711 16.3225 248.853 17.0379C247.722 14.3749 245.083 12.5065 242.007 12.5065H153.935H118.585C114.479 12.5065 111.151 15.8352 111.151 19.9419V69.8217V199.868C111.151 202.528 112.551 204.854 114.65 206.169C114.272 205.276 114.062 204.295 114.062 203.266V65.9209L151.399 15.9029Z" fill="white"/>
<path opacity="0.4" d="M245.279 13.2725C245.765 14.2606 246.045 15.369 246.045 16.545V140.137L196.797 203.906H115.188C114.013 203.906 112.905 203.626 111.916 203.14C113.128 205.602 115.655 207.302 118.585 207.302H194.173H242.006C246.112 207.302 249.442 203.972 249.442 199.867V135.738V19.9421C249.442 17.0114 247.742 14.4845 245.279 13.2725Z" fill="#93C9E1"/>
<path d="M187.094 218.305C187.094 221.826 184.241 224.68 180.722 224.68H179.872C176.352 224.68 173.499 221.825 173.499 218.305V217.456C173.499 213.935 176.352 211.081 179.872 211.081H180.722C184.242 211.081 187.094 213.936 187.094 217.456V218.305Z" fill="#007C9D"/>
<path d="M182.516 218.02C182.516 219.17 181.585 220.102 180.435 220.102H180.157C179.007 220.102 178.075 219.17 178.075 218.02V217.742C178.075 216.592 179.007 215.66 180.157 215.66H180.435C181.584 215.66 182.516 216.592 182.516 217.742V218.02Z" fill="#93C9E1"/>
<path d="M192.425 6.7883C192.425 7.64332 191.9 8.33497 191.252 8.33497H169.341C168.693 8.33497 168.168 7.6426 168.168 6.7883C168.168 5.934 168.693 5.24235 169.341 5.24235H191.252C191.9 5.24163 192.425 5.934 192.425 6.7883Z" fill="#007C9D"/>
</svg>
