<svg width="357" height="226" viewBox="0 0 357 226" fill="none" xmlns="http://www.w3.org/2000/svg">
<path fill-rule="evenodd" clip-rule="evenodd" d="M194.238 67.7747H202.569V69.4878H202.102V81.0523H194.705V69.4878H194.238V67.7747Z" fill="#04144F"/>
<path d="M104.558 225.779L350.172 225.779V173.209L104.558 173.209V225.779Z" fill="#9096A3"/>
<path d="M316.193 225.779H350.172V208.523H316.193V225.779Z" fill="#848795"/>
<path d="M290.831 225.779H340.284V183.883H290.831V225.779Z" fill="#515B85"/>
<path d="M333.092 189.361H337.973V185.51H333.092V189.361Z" fill="#353B57"/>
<path d="M327.655 189.361H332.536V185.51H327.655V189.361Z" fill="#353B57"/>
<path d="M322.218 189.361H327.099V185.51H322.218V189.361Z" fill="#353B57"/>
<path d="M316.782 189.361H321.663V185.51H316.782V189.361Z" fill="#353B57"/>
<path d="M309.572 189.361H314.453V185.51H309.572V189.361Z" fill="#353B57"/>
<path d="M304.136 189.361H309.016V185.51H304.136V189.361Z" fill="#353B57"/>
<path d="M298.698 189.361H303.579V185.51H298.698V189.361Z" fill="#353B57"/>
<path d="M293.261 189.361H298.142V185.51H293.261V189.361Z" fill="#353B57"/>
<path d="M337.578 192.636H319.202V196.943H337.578V192.636Z" fill="#515B85"/>
<path d="M337.182 193.031V196.546H319.597V193.031H337.182ZM337.974 192.239H318.806V197.338H337.974V192.239Z" fill="#4A537A"/>
<path d="M312.034 192.636H293.658V196.943H312.034V192.636Z" fill="#515B85"/>
<path d="M311.639 193.031V196.546H294.054V193.031H311.639ZM312.43 192.239H293.262V197.338H312.43V192.239Z" fill="#4A537A"/>
<path d="M337.579 201.29H319.203V205.597H337.579V201.29Z" fill="#515B85"/>
<path d="M337.182 201.686V205.2H319.598V201.686H337.182ZM337.974 200.894H318.806V205.993H337.974V200.894Z" fill="#4A537A"/>
<path d="M312.034 201.29H293.658V205.597H312.034V201.29Z" fill="#515B85"/>
<path d="M311.639 201.686V205.2H294.054V201.686H311.639ZM312.43 200.894H293.262V205.992H312.43V200.894Z" fill="#4A537A"/>
<path d="M337.579 209.945H319.203V214.251H337.579V209.945Z" fill="#515B85"/>
<path d="M337.182 210.341V213.856H319.598V210.341H337.182ZM337.974 209.549H318.806V214.647H337.974V209.549Z" fill="#4A537A"/>
<path d="M312.034 209.945H293.658V214.251H312.034V209.945Z" fill="#515B85"/>
<path d="M311.639 210.341V213.856H294.054V210.341H311.639ZM312.43 209.549H293.262V214.647H312.43V209.549Z" fill="#4A537A"/>
<path d="M337.578 218.6H319.202V222.907H337.578V218.6Z" fill="#515B85"/>
<path d="M337.182 218.996V222.511H319.598V218.996H337.182ZM337.974 218.205H318.806V223.303H337.974V218.205Z" fill="#4A537A"/>
<path d="M312.034 218.6H293.658V222.907H312.034V218.6Z" fill="#515B85"/>
<path d="M311.639 218.996V222.511H294.054V218.996H311.639ZM312.43 218.205H293.262V223.303H312.43V218.205Z" fill="#4A537A"/>
<path d="M290.01 183.882H341.364V181.687H290.01V183.882Z" fill="#DAE0FA"/>
<path d="M342.461 225.779V181.688H340.266V225.779H342.461Z" fill="#DAE0FA"/>
<path d="M290.831 225.779V181.688H288.637V225.779H290.831Z" fill="#DAE0FA"/>
<path fill-rule="evenodd" clip-rule="evenodd" d="M275.44 114.377L263.138 88.1752H153.758L141.436 114.377H275.44Z" fill="#020C30"/>
<path fill-rule="evenodd" clip-rule="evenodd" d="M156.61 169.073L144.308 142.872H34.928L22.6058 169.073H156.61Z" fill="#020C30"/>
<path d="M63.8259 104.684H323.823L356.059 173.205H31.5608L63.8259 104.684Z" fill="#03103F"/>
<path fill-rule="evenodd" clip-rule="evenodd" d="M298.021 104.684L285.719 78.4827H176.339L164.017 104.684H298.021Z" fill="#04144F"/>
<path fill-rule="evenodd" clip-rule="evenodd" d="M232.333 149.495H289.446V112.471L229.53 64.3486L200.915 86.6197L232.333 112.471V149.495Z" fill="#A1A7B7"/>
<path fill-rule="evenodd" clip-rule="evenodd" d="M284.541 106.922H225.297L200.915 87.5543L229.53 64.3486L284.541 106.922Z" fill="#A1A7B7"/>
<path d="M159.239 225.533L299.394 225.533V173.208H159.239V225.533Z" fill="#CFD6E9"/>
<path d="M29.4651 226L114.948 225.763L114.8 168.298L71.9591 136.53L29.3169 167.831L29.4651 226Z" fill="#CFD6E9"/>
<path d="M159.239 225.779L299.394 225.779V208.523L159.239 208.523V225.779Z" fill="#848795"/>
<path fill-rule="evenodd" clip-rule="evenodd" d="M71.6317 135.052L109.566 162.572H36.2321L71.6317 135.052Z" fill="#A1A7B7"/>
<path d="M186.031 225.779H272.321V183.883H186.031V225.779Z" fill="#57628F"/>
<path d="M264.015 189.361H268.896V185.51H264.015V189.361Z" fill="#353B57"/>
<path d="M258.577 189.361H263.458V185.51H258.577V189.361Z" fill="#353B57"/>
<path d="M253.14 189.361H258.021V185.51H253.14V189.361Z" fill="#353B57"/>
<path d="M247.703 189.361H252.584V185.51H247.703V189.361Z" fill="#353B57"/>
<path d="M234.008 189.361H238.889V185.51H234.008V189.361Z" fill="#353B57"/>
<path d="M228.572 189.361H233.453V185.51H228.572V189.361Z" fill="#353B57"/>
<path d="M223.135 189.361H228.016V185.51H223.135V189.361Z" fill="#353B57"/>
<path d="M217.698 189.361H222.578V185.51H217.698V189.361Z" fill="#353B57"/>
<path d="M204.773 189.361H209.654V185.51H204.773V189.361Z" fill="#353B57"/>
<path d="M199.337 189.361H204.217V185.51H199.337V189.361Z" fill="#353B57"/>
<path d="M193.899 189.361H198.78V185.51H193.899V189.361Z" fill="#353B57"/>
<path d="M188.462 189.361H193.343V185.51H188.462V189.361Z" fill="#353B57"/>
<path d="M268.499 192.636H250.123V196.943H268.499V192.636Z" fill="#57628F"/>
<path d="M268.103 193.031V196.546H250.519V193.031H268.103ZM268.895 192.239H249.727V197.338H268.895V192.239Z" fill="#505A85"/>
<path d="M248.077 192.636H229.702V196.943H248.077V192.636Z" fill="#57628F"/>
<path d="M247.682 193.031V196.546H230.098V193.031H247.682ZM248.474 192.239H229.306V197.338H248.474V192.239Z" fill="#505A85"/>
<path d="M227.656 192.636H209.281V196.943H227.656V192.636Z" fill="#57628F"/>
<path d="M227.26 193.031V196.546H209.676V193.031H227.26ZM228.052 192.239H208.884V197.338H228.052V192.239Z" fill="#505A85"/>
<path d="M207.235 192.636H188.858V196.943H207.235V192.636Z" fill="#57628F"/>
<path d="M206.839 193.031V196.546H189.254V193.031H206.839ZM207.63 192.239H188.462V197.338H207.63V192.239Z" fill="#505A85"/>
<path d="M268.499 201.29H250.123V205.597H268.499V201.29Z" fill="#57628F"/>
<path d="M268.103 201.686V205.2H250.519V201.686H268.103ZM268.895 200.894H249.727V205.993H268.895V200.894Z" fill="#505A85"/>
<path d="M248.078 201.29H229.702V205.597H248.078V201.29Z" fill="#57628F"/>
<path d="M247.682 201.686V205.2H230.098V201.686H247.682ZM248.474 200.894H229.306V205.993H248.474V200.894Z" fill="#505A85"/>
<path d="M227.656 201.29H209.281V205.597H227.656V201.29Z" fill="#57628F"/>
<path d="M227.26 201.686V205.2H209.676V201.686H227.26ZM228.052 200.894H208.885V205.993H228.052V200.894Z" fill="#505A85"/>
<path d="M207.235 201.29H188.859V205.597H207.235V201.29Z" fill="#57628F"/>
<path d="M206.839 201.686V205.2H189.254V201.686H206.839ZM207.63 200.894H188.462V205.992H207.63V200.894Z" fill="#505A85"/>
<path d="M268.499 209.945H250.123V214.251H268.499V209.945Z" fill="#57628F"/>
<path d="M268.103 210.341V213.856H250.519V210.341H268.103ZM268.895 209.549H249.727V214.647H268.895V209.549Z" fill="#505A85"/>
<path d="M248.078 209.945H229.702V214.251H248.078V209.945Z" fill="#57628F"/>
<path d="M247.682 210.341V213.856H230.098V210.341H247.682ZM248.474 209.549H229.306V214.647H248.474V209.549Z" fill="#505A85"/>
<path d="M227.656 209.945H209.281V214.251H227.656V209.945Z" fill="#57628F"/>
<path d="M227.26 210.341V213.856H209.676V210.341H227.26ZM228.052 209.549H208.885V214.647H228.052V209.549Z" fill="#505A85"/>
<path d="M207.235 209.945H188.859V214.251H207.235V209.945Z" fill="#57628F"/>
<path d="M206.839 210.341V213.856H189.254V210.341H206.839ZM207.63 209.549H188.462V214.647H207.63V209.549Z" fill="#505A85"/>
<path d="M268.499 218.6H250.123V222.907H268.499V218.6Z" fill="#57628F"/>
<path d="M268.103 218.996V222.511H250.519V218.996H268.103ZM268.895 218.205H249.727V223.303H268.895V218.205Z" fill="#505A85"/>
<path d="M248.078 218.6H229.702V222.907H248.078V218.6Z" fill="#57628F"/>
<path d="M247.682 218.996V222.511H230.098V218.996H247.682ZM248.474 218.205H229.306V223.303H248.474V218.205Z" fill="#505A85"/>
<path d="M227.656 218.6H209.281V222.907H227.656V218.6Z" fill="#57628F"/>
<path d="M227.26 218.996V222.511H209.676V218.996H227.26ZM228.052 218.205H208.885V223.303H228.052V218.205Z" fill="#505A85"/>
<path d="M207.235 218.6H188.859V222.907H207.235V218.6Z" fill="#57628F"/>
<path d="M206.839 218.996V222.511H189.254V218.996H206.839ZM207.63 218.205H188.462V223.303H207.63V218.205Z" fill="#505A85"/>
<path d="M185.211 183.882H273.4V181.687H185.211V183.882Z" fill="#A6B5FF"/>
<path d="M274.498 225.78V181.689H272.304V225.78H274.498Z" fill="#A6B5FF"/>
<path d="M186.031 225.779V181.688H183.837V225.779H186.031Z" fill="#A6B5FF"/>
<path d="M127.216 225.778H148.59V185.388H127.216V225.778Z" fill="#141E4F"/>
<path d="M150.108 225.778V184.502H148.59V225.778H150.108Z" fill="#DAE0FA"/>
<path d="M127.216 225.779L127.216 184.502H125.698L125.698 225.779H127.216Z" fill="#DAE0FA"/>
<path d="M150.109 183.87H125.698V185.389H150.109V183.87Z" fill="#DAE0FA"/>
<path d="M144.999 187.627H130.808V196.123H144.999V187.627Z" fill="#00B5F7"/>
<path d="M144.648 187.978V195.774H131.158V187.978H144.648ZM145.349 187.276H130.457V196.474H145.349V187.276Z" fill="#F2F2F2"/>
<g opacity="0.25">
<path d="M138.865 187.653L144.999 193.786L145.004 190.61L141.961 187.567L138.865 187.653Z" fill="#F2F2F2"/>
</g>
<g opacity="0.25">
<path d="M136.104 187.574L145.004 196.474L144.971 194.76L137.649 187.438L136.104 187.574Z" fill="#F2F2F2"/>
</g>
<g opacity="0.25">
<path d="M136.925 196.272L130.792 190.139L130.787 193.315L133.831 196.358L136.925 196.272Z" fill="#F2F2F2"/>
</g>
<g opacity="0.25">
<path d="M139.687 196.351L130.787 187.452L130.819 189.165L138.141 196.487L139.687 196.351Z" fill="#F2F2F2"/>
</g>
<path d="M145.18 191.606H130.683V192.146H145.18V191.606Z" fill="#F2F2F2"/>
<path d="M138.147 187.452H137.698V196.289H138.147V187.452Z" fill="#F2F2F2"/>
<path d="M144.574 199.399V223.313H139.864V199.399H144.574ZM145.349 198.625H139.09V224.087H145.349V198.625Z" fill="#101840"/>
<path d="M135.942 199.399V223.313H131.232V199.399H135.942ZM136.715 198.625H130.457V224.087H136.715V198.625Z" fill="#101840"/>
<path d="M128.837 203.954L128.841 203.959L128.832 212.056L128.835 203.954C128.835 203.954 128.836 203.954 128.837 203.954ZM128.837 203.18C128.407 203.18 128.059 203.529 128.059 203.959V212.056C128.059 212.487 128.407 212.835 128.837 212.835C129.267 212.835 129.616 212.486 129.616 212.056V203.959C129.616 203.529 129.267 203.18 128.837 203.18Z" fill="#101840"/>
<path fill-rule="evenodd" clip-rule="evenodd" d="M127.609 206.158C127.609 206.836 128.159 207.387 128.837 207.387C129.516 207.387 130.066 206.836 130.066 206.158C130.066 205.48 129.516 204.93 128.837 204.93C128.159 204.929 127.609 205.48 127.609 206.158Z" fill="#101840"/>
<path d="M35.0254 165.533H109.184V161.952H35.0254V165.533Z" fill="#848795"/>
<path fill-rule="evenodd" clip-rule="evenodd" d="M299.394 177.446H352.516C354.473 177.446 356.059 175.86 356.059 173.904V173.205H299.394L299.394 177.446Z" fill="#DAE0FA"/>
<path d="M107.352 177.446H164.017V173.204H107.352V177.446Z" fill="#DAE0FA"/>
<path fill-rule="evenodd" clip-rule="evenodd" d="M158.45 179.567H299.892C301.694 179.567 303.154 178.107 303.154 176.305V175.325H155.188V176.305C155.188 178.107 156.648 179.567 158.45 179.567Z" fill="#9599AB"/>
<path d="M92.8588 170.814H51.3073V204.598H92.8588V170.814Z" fill="#00B5F7"/>
<path d="M91.9163 171.756V203.656H52.2497V171.756H91.9163ZM93.8012 169.871H50.3648V205.541H93.8012V169.871Z" fill="#F2F2F2"/>
<g opacity="0.25">
<path d="M70.3915 171.123L93.0887 193.821L93.108 182.067L81.845 170.804L70.3915 171.123Z" fill="#F2F2F2"/>
</g>
<g opacity="0.25">
<path d="M51.0809 186.853L69.1847 204.956L81.1137 205.112L51.9432 175.942L51.0809 186.853Z" fill="#F2F2F2"/>
</g>
<g opacity="0.25">
<path d="M60.1719 170.833L93.108 203.769L92.9884 197.426L65.8918 170.329L60.1719 170.833Z" fill="#F2F2F2"/>
</g>
<g opacity="0.25">
<path d="M50.6627 195.057L60.2785 204.674L65.7006 203.871L51.2829 189.454L50.6627 195.057Z" fill="#F2F2F2"/>
</g>
<path d="M73.233 171.165H70.932V203.958H73.233V171.165Z" fill="#F2F2F2"/>
<path fill-rule="evenodd" clip-rule="evenodd" d="M303.154 175.696L296.335 149.495H162.018L155.188 175.696H303.154Z" fill="#04144F"/>
<path d="M103.779 158.849L114.948 166.72V221.82H103.779V158.849Z" fill="#A1A7B7"/>
<path d="M103.78 225.779H114.948V208.768H103.78V225.779Z" fill="#848795"/>
<path d="M40.6101 159.07L29.4416 166.94V222.041H40.6101V159.07Z" fill="#A1A7B7"/>
<path d="M40.6101 208.99H29.4416V225.999H40.6101V208.99Z" fill="#848795"/>
<path d="M54.7749 226H3.74224C2.30777 225.053 1.43908 223.36 0.837503 221.75C0.240227 220.152 -0.163688 218.433 0.0647665 216.743C0.414252 214.154 2.35719 211.848 4.85013 211.064C7.34236 210.281 10.2557 211.061 12.0232 212.985C11.5061 211.434 11.8993 209.671 12.5803 208.184C14.153 204.751 17.7589 202.346 21.533 202.213C25.3072 202.081 29.0727 204.227 30.8818 207.541C32.5375 204.432 35.8268 202.452 39.3396 202.72C42.8523 202.989 46.0922 205.791 46.6036 209.277C49.1087 207.801 51.959 208.219 54.1397 210.141C56.3204 212.063 57.3331 215.092 57.2206 217.997C57.1082 220.902 56.314 223.533 54.7749 226Z" fill="#00B3AD"/>
<path d="M26.1301 222.218C22.676 218.243 20.5741 213.114 20.2454 207.858" stroke="#008F8B" stroke-width="1.36243" stroke-miterlimit="10" stroke-linecap="round"/>
<path d="M25.2111 206.903C24.6682 209.263 23.2581 211.413 21.3094 212.85" stroke="#008F8B" stroke-width="1.36243" stroke-miterlimit="10" stroke-linecap="round"/>
<path d="M18.4865 217.887C19.8718 218.189 21.3288 218.158 22.6998 217.797" stroke="#008F8B" stroke-width="1.36243" stroke-miterlimit="10" stroke-linecap="round"/>
<path d="M45.5901 222.684C48.661 219.734 50.6777 215.707 51.199 211.48" stroke="#008F8B" stroke-width="1.36243" stroke-miterlimit="10" stroke-linecap="round"/>
<path d="M47.4012 220.645C47.3317 220.695 47.2386 220.634 47.177 220.575C45.7966 219.246 45.4041 217.221 45.0811 215.332" stroke="#008F8B" stroke-width="1.36243" stroke-miterlimit="10" stroke-linecap="round"/>
<path d="M50.3707 216.542C51.4487 216.482 52.4874 215.912 53.1163 215.035" stroke="#008F8B" stroke-width="1.36243" stroke-miterlimit="10" stroke-linecap="round"/>
<path d="M35.7782 217.558C36.8452 214.826 37.3315 211.868 37.1962 208.937" stroke="#008F8B" stroke-width="1.36243" stroke-miterlimit="10" stroke-linecap="round"/>
<path d="M12.3513 223.287C9.82969 221.663 7.70269 219.431 6.2002 216.836" stroke="#008F8B" stroke-width="1.36243" stroke-miterlimit="10" stroke-linecap="round"/>
<path d="M35.9576 214.345C35.0229 213.513 34.4298 212.307 34.3424 211.059" stroke="#008F8B" stroke-width="1.36243" stroke-miterlimit="10" stroke-linecap="round"/>
<path d="M8.7818 220.147C9.41287 218.915 9.34338 217.452 9.21087 216.073" stroke="#008F8B" stroke-width="1.36243" stroke-miterlimit="10" stroke-linecap="round"/>
<path d="M37.5914 211.338C38.5914 210.799 39.403 209.916 39.8564 208.874" stroke="#008F8B" stroke-width="1.36243" stroke-miterlimit="10" stroke-linecap="round"/>
<path d="M7.73477 223.317C8.73617 223.423 9.76837 223.215 10.6501 222.729" stroke="#008F8B" stroke-width="1.36243" stroke-miterlimit="10" stroke-linecap="round"/>
<path d="M22.6058 169.02L72.0679 131.141L72.083 131.16L72.098 131.141L121.56 169.02L121.156 169.547C119.609 171.567 116.718 171.951 114.697 170.404L72.083 137.769L29.468 170.404C27.4484 171.951 24.5573 171.568 23.0097 169.547L22.6058 169.02Z" fill="#FF3333"/>
<path fill-rule="evenodd" clip-rule="evenodd" d="M68.4229 158.022C67.9546 158.022 67.5728 157.64 67.5728 157.171V147.172C67.5728 146.704 67.9546 146.322 68.4229 146.322H75.8423C76.3107 146.322 76.6924 146.703 76.6924 147.172V157.171C76.6924 157.639 76.3107 158.022 75.8423 158.022H68.4229Z" fill="#A6B5FF"/>
<path d="M75.8421 146.79C76.0533 146.79 76.2252 146.962 76.2252 147.173V157.172C76.2252 157.383 76.0533 157.555 75.8421 157.555H68.4227C68.2114 157.555 68.0395 157.383 68.0395 157.172V147.173C68.0395 146.962 68.2114 146.79 68.4227 146.79H75.8421ZM75.8421 145.856H68.4227C67.6951 145.856 67.1057 146.445 67.1057 147.173V157.172C67.1057 157.9 67.6958 158.489 68.4227 158.489H75.8421C76.5697 158.489 77.1591 157.899 77.1591 157.172V147.173C77.1591 146.445 76.5697 145.856 75.8421 145.856Z" fill="#DAE0FA"/>
<path d="M225.676 107.254H283.432V103.671H225.676V107.254Z" fill="#848795"/>
<path d="M179.692 99.2623L229.154 61.3833L229.169 61.4026L229.184 61.3833L301.15 116.497L300.53 117.307C299.103 119.171 296.435 119.525 294.57 118.097L229.169 68.012L182.897 103.448L179.692 99.2623Z" fill="#FF3333"/>
<path fill-rule="evenodd" clip-rule="evenodd" d="M225.792 94.9138C224.375 94.9138 223.222 93.7615 223.222 92.3442V82.7635C223.222 81.3462 224.375 80.1939 225.792 80.1939H232.177C233.594 80.1939 234.747 81.3462 234.747 82.7635V92.3442C234.747 93.7615 233.595 94.9138 232.177 94.9138H225.792Z" fill="#A6B5FF"/>
<path d="M232.177 80.6615C233.337 80.6615 234.279 81.6046 234.279 82.7641V92.3449C234.279 93.5043 233.336 94.4468 232.177 94.4468H225.793C224.633 94.4468 223.69 93.5036 223.69 92.3449V82.7641C223.69 81.6046 224.633 80.6615 225.793 80.6615H232.177ZM232.177 79.7269H225.793C224.115 79.7269 222.756 81.0862 222.756 82.7634V92.3442C222.756 94.0214 224.115 95.3807 225.793 95.3807H232.177C233.854 95.3807 235.214 94.0214 235.214 92.3442V82.7634C235.214 81.0869 233.854 79.7269 232.177 79.7269Z" fill="#DAE0FA"/>
<path d="M122.894 185.972H118.846V211.748H122.894V185.972Z" fill="#00B5F7"/>
<path d="M122.545 186.323V211.397H119.197V186.323H122.545ZM123.245 185.622H118.496V212.099H123.245V185.622Z" fill="#F2F2F2"/>
<g opacity="0.25">
<path d="M118.863 185.72L123.063 189.92L123.066 187.745L120.983 185.661L118.863 185.72Z" fill="#F2F2F2"/>
</g>
<g opacity="0.25">
<path d="M118.697 187.374L123.09 191.785L123.044 190.587L118.863 186.386L118.697 187.374Z" fill="#F2F2F2"/>
</g>
<g opacity="0.25">
<path d="M118.863 195.526L123.062 199.725L123.065 197.551L119.024 193.509L118.863 195.526Z" fill="#F2F2F2"/>
</g>
<g opacity="0.25">
<path d="M118.697 197.181L123.09 201.591L123.044 200.393L118.863 196.191L118.697 197.181Z" fill="#F2F2F2"/>
</g>
<g opacity="0.25">
<path d="M118.863 205.985L123.062 210.184L123.065 208.009L119.024 203.968L118.863 205.985Z" fill="#F2F2F2"/>
</g>
<g opacity="0.25">
<path d="M118.697 207.639L123.09 212.049L123.044 210.851L118.863 206.65L118.697 207.639Z" fill="#F2F2F2"/>
</g>
<path d="M156.698 185.972H152.648V211.748H156.698V185.972Z" fill="#00B5F7"/>
<path d="M156.348 186.323V211.397H152.999V186.323H156.348ZM157.049 185.622H152.299V212.099H157.049V185.622Z" fill="#F2F2F2"/>
<g opacity="0.25">
<path d="M152.666 185.72L156.866 189.92L156.87 187.745L154.785 185.661L152.666 185.72Z" fill="#F2F2F2"/>
</g>
<g opacity="0.25">
<path d="M152.5 187.374L156.893 191.785L156.848 190.587L152.666 186.386L152.5 187.374Z" fill="#F2F2F2"/>
</g>
<g opacity="0.25">
<path d="M152.666 195.526L156.865 199.725L156.869 197.551L152.827 193.509L152.666 195.526Z" fill="#F2F2F2"/>
</g>
<g opacity="0.25">
<path d="M152.5 197.181L156.893 201.591L156.848 200.393L152.666 196.191L152.5 197.181Z" fill="#F2F2F2"/>
</g>
<g opacity="0.25">
<path d="M152.666 205.985L156.865 210.184L156.869 208.009L152.827 203.968L152.666 205.985Z" fill="#F2F2F2"/>
</g>
<g opacity="0.25">
<path d="M152.5 207.639L156.893 212.049L156.848 210.851L152.666 206.65L152.5 207.639Z" fill="#F2F2F2"/>
</g>
<path d="M181.009 200.604V204.818H162.89V200.604H181.009ZM181.721 199.891H162.177V205.532H181.721V199.891Z" fill="#BFC4DB"/>
<path d="M170.834 186.234C170.834 186.814 171.305 187.284 171.884 187.284C172.465 187.284 172.934 186.814 172.934 186.234C172.934 185.653 172.465 185.184 171.884 185.184C171.304 185.184 170.834 185.653 170.834 186.234Z" fill="#6D788C"/>
<path d="M171.949 191.921C172.668 191.921 173.251 191.338 173.251 190.619V190.482H170.648V190.619C170.648 191.338 171.231 191.921 171.949 191.921Z" fill="#FFE15C"/>
<path d="M171.359 187.767H172.409V185.524C172.409 185.234 172.174 184.999 171.884 184.999C171.594 184.999 171.359 185.234 171.359 185.524V187.767Z" fill="#8794AD"/>
<path d="M169.601 190.842H174.298L173.915 188.385C173.764 187.416 172.929 186.702 171.949 186.702C170.97 186.702 170.135 187.416 169.984 188.385L169.601 190.842Z" fill="#ABBADB"/>
<path d="M136.816 180.559C136.816 181.14 137.286 181.61 137.866 181.61C138.446 181.61 138.916 181.14 138.916 180.559C138.916 179.979 138.446 179.509 137.866 179.509C137.286 179.509 136.816 179.979 136.816 180.559Z" fill="#6D788C"/>
<path d="M137.932 186.246C138.651 186.246 139.233 185.663 139.233 184.945V184.808H136.63V184.945C136.63 185.663 137.213 186.246 137.932 186.246Z" fill="#FFE15C"/>
<path d="M137.341 182.093H138.391V179.85C138.391 179.56 138.156 179.325 137.866 179.325C137.576 179.325 137.341 179.56 137.341 179.85V182.093Z" fill="#8794AD"/>
<path d="M135.583 185.168H140.281L139.898 182.711C139.747 181.742 138.912 181.028 137.932 181.028C136.952 181.028 136.118 181.742 135.967 182.711L135.583 185.168Z" fill="#ABBADB"/>
<path d="M285.172 186.233C285.172 186.814 285.642 187.283 286.222 187.283C286.803 187.283 287.272 186.814 287.272 186.233C287.272 185.653 286.802 185.183 286.222 185.183C285.642 185.183 285.172 185.653 285.172 186.233Z" fill="#6D788C"/>
<path d="M286.288 191.921C287.007 191.921 287.59 191.338 287.59 190.619V190.482H284.987V190.619C284.987 191.338 285.569 191.921 286.288 191.921Z" fill="#FFE15C"/>
<path d="M285.697 187.767H286.748V185.524C286.748 185.234 286.513 184.999 286.223 184.999C285.933 184.999 285.698 185.234 285.698 185.524L285.697 187.767Z" fill="#8794AD"/>
<path d="M283.94 190.842H288.637L288.254 188.385C288.103 187.416 287.269 186.702 286.289 186.702C285.309 186.702 284.474 187.416 284.323 188.385L283.94 190.842Z" fill="#ABBADB"/>
<path fill-rule="evenodd" clip-rule="evenodd" d="M168.329 154.284H232.333V112.471L200.915 88.1752L168.329 112.471V154.284Z" fill="#CFD6E9"/>
<path fill-rule="evenodd" clip-rule="evenodd" d="M173.351 107.254L199.98 88.8723L228.361 107.254L231.019 111.39H171.015L173.351 107.254Z" fill="#A1A7B7"/>
<path d="M172.027 111.389H228.635V107.807H172.027V111.389Z" fill="#848795"/>
<path d="M217.849 118.27H184.156V145.601H217.849V118.27Z" fill="#00B5F7"/>
<path d="M216.907 119.212V144.658H185.098V119.212H216.907ZM218.792 117.327H183.214V146.543H218.792V117.327Z" fill="#F2F2F2"/>
<g opacity="0.25">
<path d="M199.617 118.353L218.209 136.944L218.225 127.318L208.999 118.092L199.617 118.353Z" fill="#F2F2F2"/>
</g>
<g opacity="0.25">
<path d="M183.8 131.237L198.629 146.065L208.399 146.193L184.507 122.3L183.8 131.237Z" fill="#F2F2F2"/>
</g>
<g opacity="0.25">
<path d="M191.246 118.114L218.224 145.092L218.126 139.896L195.932 117.702L191.246 118.114Z" fill="#F2F2F2"/>
</g>
<g opacity="0.25">
<path d="M183.458 137.957L191.334 145.833L195.775 145.177L183.966 133.367L183.458 137.957Z" fill="#F2F2F2"/>
</g>
<path d="M201.945 118.388H200.06V145.248H201.945V118.388Z" fill="#F2F2F2"/>
<path d="M272.428 115.32H238.735V142.65H272.428V115.32Z" fill="#00B5F7"/>
<path d="M271.485 116.262V141.708H239.677V116.262H271.485ZM273.37 114.377H237.792V143.593H273.37V114.377Z" fill="#F2F2F2"/>
<g opacity="0.25">
<path d="M254.196 115.402L272.786 133.994L272.803 124.366L263.577 115.141L254.196 115.402Z" fill="#F2F2F2"/>
</g>
<g opacity="0.25">
<path d="M238.379 128.285L253.207 143.114L262.978 143.241L239.086 119.349L238.379 128.285Z" fill="#F2F2F2"/>
</g>
<g opacity="0.25">
<path d="M245.825 115.164L272.803 142.141L272.705 136.946L250.51 114.751L245.825 115.164Z" fill="#F2F2F2"/>
</g>
<g opacity="0.25">
<path d="M238.036 135.006L245.912 142.883L250.353 142.226L238.544 130.416L238.036 135.006Z" fill="#F2F2F2"/>
</g>
<path d="M256.524 115.437H254.639V142.297H256.524V115.437Z" fill="#F2F2F2"/>
<path d="M156.861 116.747L200.033 83.6522L200.047 83.6715L200.062 83.6522L241.878 115.676L241.494 116.178C239.936 118.212 237.024 118.599 234.989 117.04L200.049 90.2817L163.75 118.107C161.716 119.666 158.802 119.281 157.244 117.246L156.861 116.747Z" fill="#FF3333"/>
<path d="M144.496 36.8342H21.6202C17.3289 36.8342 13.8506 33.3558 13.8506 29.0638V7.7696C13.8506 3.47838 17.3289 0 21.6202 0H144.496C148.788 0 152.267 3.47909 152.267 7.7696V29.0638C152.266 33.3551 148.788 36.8342 144.496 36.8342Z" fill="#F2F2F2"/>
<path d="M42.0424 31.4435H23.176C21.0676 31.4435 19.3582 29.734 19.3582 27.6256V8.75918C19.3582 6.6501 21.0676 4.94134 23.176 4.94134H42.0424C44.1515 4.94134 45.8603 6.65081 45.8603 8.75918V27.6256C45.861 29.734 44.1515 31.4435 42.0424 31.4435Z" fill="#A9D4F9"/>
<path d="M57.5295 5.38699L58.6875 7.73384C58.7692 7.89928 58.9267 8.01386 59.1094 8.04036L61.6997 8.41706C62.1595 8.48366 62.3428 9.04871 62.0098 9.37313L60.1356 11.2C60.0031 11.329 59.943 11.5144 59.9745 11.6963L60.4171 14.2759C60.4958 14.7336 60.0153 15.0831 59.6043 14.8668L57.2874 13.6486C57.1242 13.5627 56.9294 13.5627 56.7661 13.6486L54.4493 14.8668C54.0383 15.0831 53.5577 14.7336 53.6365 14.2759L54.0791 11.6963C54.1106 11.5144 54.0497 11.329 53.918 11.2L52.0438 9.37313C51.7115 9.04871 51.8948 8.48437 52.3545 8.41706L54.9449 8.04036C55.1275 8.01386 55.2851 7.89928 55.3667 7.73384L56.5247 5.38699C56.7303 4.97091 57.324 4.97091 57.5295 5.38699Z" fill="#FFCC33"/>
<path d="M70.0589 5.38699L71.2169 7.73384C71.2986 7.89928 71.4561 8.01386 71.6387 8.04036L74.2291 8.41706C74.6889 8.48366 74.8722 9.04871 74.5399 9.37313L72.6657 11.2C72.5339 11.329 72.4738 11.5144 72.5046 11.6963L72.9472 14.2759C73.026 14.7336 72.5454 15.0831 72.1343 14.8668L69.8176 13.6486C69.6543 13.5627 69.4595 13.5627 69.2962 13.6486L66.9794 14.8668C66.5683 15.0831 66.0878 14.7336 66.1666 14.2759L66.6092 11.6963C66.6407 11.5144 66.5805 11.329 66.448 11.2L64.5738 9.37313C64.2415 9.04871 64.4249 8.48437 64.8847 8.41706L67.475 8.04036C67.6576 8.01386 67.8152 7.89928 67.8968 7.73384L69.0549 5.38699C69.2597 4.97091 69.8534 4.97091 70.0589 5.38699Z" fill="#FFCC33"/>
<path d="M82.5882 5.38699L83.7463 7.73384C83.8279 7.89928 83.9855 8.01386 84.1681 8.04036L86.7584 8.41706C87.2182 8.48366 87.4016 9.04871 87.0685 9.37313L85.1944 11.2C85.0626 11.329 85.0017 11.5144 85.0332 11.6963L85.4758 14.2759C85.5539 14.7336 85.074 15.0831 84.663 14.8668L82.3462 13.6486C82.1829 13.5627 81.9881 13.5627 81.8248 13.6486L79.5081 14.8668C79.097 15.0831 78.6164 14.7336 78.6952 14.2759L79.1378 11.6963C79.1686 11.5144 79.1084 11.329 78.9767 11.2L77.1025 9.37313C76.7702 9.04871 76.9535 8.48437 77.4133 8.41706L80.0036 8.04036C80.1862 8.01386 80.3438 7.89928 80.4255 7.73384L81.5835 5.38699C81.789 4.97091 82.3827 4.97091 82.5882 5.38699Z" fill="#FFCC33"/>
<path d="M95.1171 5.38699L96.2758 7.73384C96.3575 7.89928 96.515 8.01386 96.6976 8.04036L99.288 8.41706C99.7478 8.48366 99.9311 9.04871 99.5988 9.37313L97.7246 11.2C97.5929 11.329 97.532 11.5144 97.5635 11.6963L98.006 14.2759C98.0848 14.7336 97.6043 15.0831 97.1932 14.8668L94.8764 13.6486C94.7132 13.5627 94.5184 13.5627 94.3551 13.6486L92.0383 14.8668C91.6273 15.0831 91.1467 14.7336 91.2255 14.2759L91.6681 11.6963C91.6996 11.5144 91.6394 11.329 91.5069 11.2L89.6328 9.37313C89.3005 9.04871 89.4838 8.48437 89.9435 8.41706L92.5339 8.04036C92.7165 8.01386 92.8741 7.89928 92.9557 7.73384L94.1137 5.38699C94.3178 4.97091 94.9115 4.97091 95.1171 5.38699Z" fill="#FFCC33"/>
<path d="M107.646 5.38699L108.804 7.73384C108.886 7.89928 109.044 8.01386 109.226 8.04036L111.817 8.41706C112.276 8.48366 112.46 9.04871 112.127 9.37313L110.253 11.2C110.121 11.329 110.061 11.5144 110.092 11.6963L110.535 14.2759C110.613 14.7336 110.133 15.0831 109.722 14.8668L107.405 13.6486C107.242 13.5627 107.047 13.5627 106.884 13.6486L104.567 14.8668C104.156 15.0831 103.675 14.7336 103.754 14.2759L104.197 11.6963C104.228 11.5144 104.167 11.329 104.036 11.2L102.161 9.37313C101.829 9.04871 102.012 8.48437 102.472 8.41706L105.063 8.04036C105.245 8.01386 105.403 7.89928 105.484 7.73384L106.642 5.38699C106.846 4.97091 107.441 4.97091 107.646 5.38699Z" fill="#FFCC33"/>
<path d="M120.175 5.38699L121.333 7.73384C121.415 7.89928 121.572 8.01386 121.755 8.04036L124.345 8.41706C124.805 8.48366 124.988 9.04871 124.656 9.37313L122.782 11.2C122.65 11.329 122.59 11.5144 122.621 11.6963L123.063 14.2759C123.142 14.7336 122.662 15.0831 122.25 14.8668L119.934 13.6486C119.77 13.5627 119.576 13.5627 119.412 13.6486L117.096 14.8668C116.684 15.0831 116.204 14.7336 116.283 14.2759L116.725 11.6963C116.757 11.5144 116.697 11.329 116.564 11.2L114.69 9.37313C114.358 9.04871 114.541 8.48437 115.001 8.41706L117.591 8.04036C117.774 8.01386 117.931 7.89928 118.013 7.73384L119.171 5.38699C119.376 4.97091 119.97 4.97091 120.175 5.38699Z" fill="#FFCC33"/>
<path d="M143.186 18.4167H49.6032V21.3773H143.186V18.4167Z" fill="#57628F"/>
<path d="M121.998 23.4497H49.6031V26.4103H121.998V23.4497Z" fill="#57628F"/>
<path d="M103.431 28.4831H49.6031V31.4437H103.431V28.4831Z" fill="#57628F"/>
<path d="M38.5108 14.9156C38.5108 18.0997 35.9297 20.68 32.7464 20.68C29.5624 20.68 26.9814 18.099 26.9814 14.9156C26.9814 11.7316 29.5624 9.15128 32.7464 9.15128C35.9297 9.15128 38.5108 11.7316 38.5108 14.9156Z" fill="#00B3AD"/>
<path d="M32.7462 22.3099C27.7016 22.3099 23.6131 26.3992 23.6131 31.4438H41.8801C41.8794 26.3992 37.7901 22.3099 32.7462 22.3099Z" fill="#00B3AD"/>
<path d="M144.496 78.3936H21.62C17.3288 78.3936 13.8504 74.9152 13.8504 70.6233V49.3298C13.8504 45.0385 17.3288 41.5602 21.62 41.5602H144.496C148.787 41.5602 152.267 45.0393 152.267 49.3298V70.624C152.266 74.9152 148.787 78.3936 144.496 78.3936Z" fill="#F2F2F2"/>
<path d="M42.0423 73.0029H23.1758C21.0675 73.0029 19.358 71.2934 19.358 69.1851V50.3186C19.358 48.2095 21.0675 46.5007 23.1758 46.5007H42.0423C44.1514 46.5007 45.8601 48.2102 45.8601 50.3186V69.1851C45.8608 71.2941 44.1514 73.0029 42.0423 73.0029Z" fill="#A9D4F9"/>
<path d="M57.5294 46.947L58.6874 49.2945C58.7691 49.46 58.9266 49.5745 59.1092 49.601L61.6996 49.977C62.1594 50.0436 62.3427 50.6087 62.0097 50.9331L60.1355 52.76C60.003 52.8889 59.9428 53.0744 59.9744 53.2563L60.4169 55.8359C60.4957 56.2935 60.0152 56.643 59.6041 56.4267L57.2873 55.2086C57.124 55.1226 56.9293 55.1226 56.766 55.2086L54.4492 56.4267C54.0381 56.643 53.5576 56.2935 53.6364 55.8359L54.079 53.2563C54.1105 53.0744 54.0496 52.8889 53.9178 52.76L52.0436 50.9331C51.7113 50.6087 51.8947 50.0443 52.3544 49.977L54.9448 49.601C55.1274 49.5745 55.2849 49.46 55.3666 49.2945L56.5246 46.947C56.7302 46.5302 57.3239 46.5302 57.5294 46.947Z" fill="#FFCC33"/>
<path d="M70.0587 46.947L71.2168 49.2945C71.2984 49.46 71.456 49.5745 71.6386 49.601L74.2289 49.977C74.6887 50.0436 74.8721 50.6087 74.5398 50.9331L72.6656 52.76C72.5338 52.8889 72.4737 53.0744 72.5044 53.2563L72.947 55.8359C73.0258 56.2935 72.5453 56.643 72.1342 56.4267L69.8174 55.2086C69.6541 55.1226 69.4593 55.1226 69.296 55.2086L66.9793 56.4267C66.5682 56.643 66.0876 56.2935 66.1664 55.8359L66.609 53.2563C66.6405 53.0744 66.5804 52.8889 66.4479 52.76L64.5737 50.9331C64.2414 50.6087 64.4247 50.0443 64.8845 49.977L67.4749 49.601C67.6575 49.5745 67.815 49.46 67.8967 49.2945L69.0547 46.947C69.2595 46.5302 69.8532 46.5302 70.0587 46.947Z" fill="#FFCC33"/>
<path d="M82.5881 46.947L83.7461 49.2945C83.8278 49.46 83.9853 49.5745 84.168 49.601L86.7583 49.977C87.2181 50.0436 87.4014 50.6087 87.0684 50.9331L85.1942 52.76C85.0625 52.8889 85.0016 53.0744 85.0331 53.2563L85.4757 55.8359C85.5538 56.2935 85.0739 56.643 84.6628 56.4267L82.346 55.2086C82.1828 55.1226 81.988 55.1226 81.8247 55.2086L79.5079 56.4267C79.0969 56.643 78.6163 56.2935 78.6951 55.8359L79.1377 53.2563C79.1685 53.0744 79.1083 52.8889 78.9765 52.76L77.1024 50.9331C76.7701 50.6087 76.9534 50.0443 77.4131 49.977L80.0035 49.601C80.1861 49.5745 80.3437 49.46 80.4253 49.2945L81.5834 46.947C81.7889 46.5302 82.3826 46.5302 82.5881 46.947Z" fill="#FFCC33"/>
<path d="M95.1169 46.947L96.2757 49.2945C96.3574 49.46 96.5149 49.5745 96.6975 49.601L99.2879 49.977C99.7476 50.0436 99.931 50.6087 99.5987 50.9331L97.7245 52.76C97.5927 52.8889 97.5318 53.0744 97.5633 53.2563L98.0059 55.8359C98.0847 56.2935 97.6042 56.643 97.1931 56.4267L94.8763 55.2086C94.713 55.1226 94.5183 55.1226 94.355 55.2086L92.0382 56.4267C91.6271 56.643 91.1466 56.2935 91.2254 55.8359L91.6679 53.2563C91.6995 53.0744 91.6393 52.8889 91.5068 52.76L89.6326 50.9331C89.3003 50.6087 89.4836 50.0443 89.9434 49.977L92.5338 49.601C92.7164 49.5745 92.8739 49.46 92.9556 49.2945L94.1136 46.947C94.3177 46.5302 94.9114 46.5302 95.1169 46.947Z" fill="#FFCC33"/>
<path d="M107.646 46.947L108.804 49.2945C108.886 49.46 109.044 49.5745 109.226 49.601L111.816 49.977C112.276 50.0436 112.46 50.6087 112.127 50.9331L110.253 52.76C110.121 52.8889 110.06 53.0744 110.092 53.2563L110.535 55.8359C110.613 56.2935 110.133 56.643 109.722 56.4267L107.405 55.2086C107.242 55.1226 107.047 55.1226 106.884 55.2086L104.567 56.4267C104.156 56.643 103.675 56.2935 103.754 55.8359L104.197 53.2563C104.227 53.0744 104.167 52.8889 104.035 52.76L102.161 50.9331C101.829 50.6087 102.012 50.0443 102.472 49.977L105.062 49.601C105.245 49.5745 105.403 49.46 105.484 49.2945L106.642 46.947C106.846 46.5302 107.441 46.5302 107.646 46.947Z" fill="#FFCC33"/>
<path d="M143.186 59.9769H49.6031V62.9375H143.186V59.9769Z" fill="#57628F"/>
<path d="M121.998 65.01H49.603V67.9706H121.998V65.01Z" fill="#57628F"/>
<path d="M103.431 70.0426H49.603V73.0032H103.431V70.0426Z" fill="#57628F"/>
<path d="M38.5106 56.475C38.5106 59.6591 35.9296 62.2394 32.7462 62.2394C29.5622 62.2394 26.9812 59.6583 26.9812 56.475C26.9812 53.2917 29.5622 50.7107 32.7462 50.7107C35.9296 50.7107 38.5106 53.2917 38.5106 56.475Z" fill="#00B3AD"/>
<path d="M32.746 63.8701C27.7014 63.8701 23.6129 67.9594 23.6129 73.004H41.8799C41.8792 67.9594 37.7899 63.8701 32.746 63.8701Z" fill="#00B3AD"/>
<path d="M144.496 119.953H21.62C17.3288 119.953 13.8504 116.475 13.8504 112.183V90.8888C13.8504 86.5976 17.3288 83.1185 21.62 83.1185H144.496C148.787 83.1185 152.267 86.5976 152.267 90.8888V112.183C152.266 116.474 148.787 119.953 144.496 119.953Z" fill="#F2F2F2"/>
<path d="M42.0423 114.563H23.1758C21.0675 114.563 19.358 112.854 19.358 110.745V91.8789C19.358 89.7698 21.0675 88.0611 23.1758 88.0611H42.0423C44.1514 88.0611 45.8601 89.7705 45.8601 91.8789V110.745C45.8608 112.854 44.1514 114.563 42.0423 114.563Z" fill="#A9D4F9"/>
<path d="M57.5294 88.5064L58.6874 90.8532C58.7691 91.0187 58.9266 91.1333 59.1092 91.1598L61.6996 91.5357C62.1594 91.6023 62.3427 92.1674 62.0097 92.4918L60.1355 94.3187C60.003 94.4476 59.9428 94.6331 59.9744 94.815L60.4169 97.3946C60.4957 97.8523 60.0152 98.2017 59.6041 97.9855L57.2873 96.7673C57.124 96.6813 56.9293 96.6813 56.766 96.7673L54.4492 97.9855C54.0381 98.2017 53.5576 97.8523 53.6364 97.3946L54.079 94.815C54.1105 94.6331 54.0496 94.4476 53.9178 94.3187L52.0436 92.4918C51.7113 92.1674 51.8947 91.6031 52.3544 91.5357L54.9448 91.1598C55.1274 91.1333 55.2849 91.0187 55.3666 90.8532L56.5246 88.5064C56.7302 88.0903 57.3239 88.0903 57.5294 88.5064Z" fill="#FFCC33"/>
<path d="M70.0587 88.5066L71.2168 90.8534C71.2984 91.0189 71.456 91.1334 71.6386 91.1599L74.2289 91.5359C74.6887 91.6025 74.8721 92.1676 74.5398 92.492L72.6656 94.3189C72.5338 94.4478 72.4737 94.6333 72.5044 94.8152L72.947 97.3948C73.0258 97.8524 72.5453 98.2019 72.1342 97.9857L69.8174 96.7675C69.6541 96.6815 69.4593 96.6815 69.296 96.7675L66.9793 97.9857C66.5682 98.2019 66.0876 97.8524 66.1664 97.3948L66.609 94.8152C66.6405 94.6333 66.5804 94.4478 66.4479 94.3189L64.5737 92.492C64.2414 92.1676 64.4247 91.6033 64.8845 91.5359L67.4734 91.1607C67.656 91.1342 67.8136 91.0196 67.8952 90.8542L69.0533 88.5073C69.2595 88.0905 69.8532 88.0905 70.0587 88.5066Z" fill="#FFCC33"/>
<path d="M82.5881 88.5064L83.7461 90.8532C83.8278 91.0187 83.9853 91.1333 84.168 91.1598L86.7583 91.5357C87.2181 91.6023 87.4014 92.1674 87.0684 92.4918L85.1942 94.3187C85.0625 94.4476 85.0016 94.6331 85.0331 94.815L85.4757 97.3946C85.5538 97.8523 85.0739 98.2017 84.6628 97.9855L82.346 96.7673C82.1828 96.6813 81.988 96.6813 81.8247 96.7673L79.5079 97.9855C79.0969 98.2017 78.6163 97.8523 78.6951 97.3946L79.1377 94.815C79.1685 94.6331 79.1083 94.4476 78.9765 94.3187L77.1024 92.4918C76.7701 92.1674 76.9534 91.6031 77.4131 91.5357L80.0035 91.1598C80.1861 91.1333 80.3437 91.0187 80.4253 90.8532L81.5834 88.5064C81.7889 88.0903 82.3826 88.0903 82.5881 88.5064Z" fill="#FFCC33"/>
<path d="M95.1169 88.5066L96.2757 90.8534C96.3574 91.0189 96.5149 91.1334 96.6975 91.1599L99.2879 91.5359C99.7476 91.6025 99.931 92.1676 99.5987 92.492L97.7245 94.3189C97.5927 94.4478 97.5318 94.6333 97.5633 94.8152L98.0059 97.3948C98.0847 97.8524 97.6042 98.2019 97.1931 97.9857L94.8763 96.7675C94.713 96.6815 94.5183 96.6815 94.355 96.7675L92.0382 97.9857C91.6271 98.2019 91.1466 97.8524 91.2254 97.3948L91.6679 94.8152C91.6995 94.6333 91.6393 94.4478 91.5068 94.3189L89.6326 92.492C89.3003 92.1676 89.4836 91.6033 89.9434 91.5359L92.5316 91.1607C92.7142 91.1342 92.8718 91.0196 92.9534 90.8542L94.1115 88.5073C94.3177 88.0905 94.9114 88.0905 95.1169 88.5066Z" fill="#FFCC33"/>
<path d="M143.186 101.536H49.6031V104.497H143.186V101.536Z" fill="#57628F"/>
<path d="M121.998 106.569H49.603V109.53H121.998V106.569Z" fill="#57628F"/>
<path d="M103.431 111.603H49.603V114.563H103.431V111.603Z" fill="#57628F"/>
<path d="M38.5106 98.0349C38.5106 101.218 35.9296 103.799 32.7462 103.799C29.5622 103.799 26.9812 101.218 26.9812 98.0349C26.9812 94.8508 29.5622 92.2698 32.7462 92.2698C35.9296 92.2698 38.5106 94.8508 38.5106 98.0349Z" fill="#00B3AD"/>
<path d="M32.746 105.429C27.7014 105.429 23.6129 109.519 23.6129 114.563H41.8799C41.8792 109.519 37.7899 105.429 32.746 105.429Z" fill="#00B3AD"/>
</svg>
