<svg width="202" height="326" viewBox="0 0 202 326" fill="none" xmlns="http://www.w3.org/2000/svg">
<path d="M194.451 16.615V309.385C194.451 318.563 187.004 326 177.814 326H31.821C27.2034 326 23.0294 324.124 20.0143 321.093C17.0294 318.087 15.1844 313.952 15.1844 309.385V16.615C15.1844 7.43747 22.632 0 31.8221 0H177.815C180.531 0 183.096 0.649006 185.362 1.80436C190.758 4.55009 194.451 10.15 194.451 16.615Z" fill="#2A365C"/>
<path d="M194.451 16.6151V309.385C194.451 318.563 187.004 326 177.814 326H31.8212C27.2035 326 23.0295 324.124 20.0144 321.093L185.361 1.80449C190.758 4.55021 194.451 10.1502 194.451 16.6151Z" fill="#16162F"/>
<path d="M15.1834 91.3435H12.779C10.7458 91.3435 9.09694 89.6969 9.09694 87.6665V56.3423C9.09694 54.3119 10.7458 52.6652 12.779 52.6652H15.1834V91.3435Z" fill="#16162F"/>
<path d="M194.451 81.2237H196.419C198.083 81.2237 199.431 79.8775 199.431 78.2158V52.7377C199.431 51.076 198.083 49.7298 196.419 49.7298H194.451V81.2237Z" fill="#16162F"/>
<path d="M15.1834 135.27H12.779C10.7458 135.27 9.09694 133.624 9.09694 131.593V100.269C9.09694 98.2384 10.7458 96.5917 12.779 96.5917H15.1834V135.27Z" fill="#16162F"/>
<path d="M186.153 15.8922V310.108C186.153 314.306 182.742 317.712 178.538 317.712H31.0978C27.963 317.712 25.2719 315.82 24.1049 313.118C23.7035 312.195 23.4832 311.178 23.4832 310.108V15.8922C23.4832 11.6918 26.8916 8.28798 31.0978 8.28798H178.539C179.651 8.28798 180.707 8.52508 181.657 8.95406C184.306 10.1426 186.153 12.8019 186.153 15.8922Z" fill="#FEFDFF"/>
<path d="M171.113 233.257H81.3629C79.7321 233.257 78.4102 231.937 78.4102 230.309C78.4102 228.68 79.7321 227.36 81.3629 227.36H171.113C172.743 227.36 174.065 228.68 174.065 230.309C174.065 231.936 172.743 233.257 171.113 233.257Z" fill="#CAE6FE"/>
<path d="M171.112 246.033H81.3629C79.7321 246.033 78.4102 244.713 78.4102 243.084C78.4102 241.456 79.7321 240.136 81.3629 240.136H171.112C172.743 240.136 174.065 241.456 174.065 243.084C174.065 244.713 172.743 246.033 171.112 246.033Z" fill="#CAE6FE"/>
<path d="M171.113 258.809H81.3629C79.7321 258.809 78.4102 257.489 78.4102 255.86C78.4102 254.232 79.7321 252.912 81.3629 252.912H171.113C172.743 252.912 174.065 254.232 174.065 255.86C174.065 257.489 172.743 258.809 171.113 258.809Z" fill="#CAE6FE"/>
<path d="M70.4033 227.369H38.9358V258.794H70.4033V227.369Z" fill="#CAE6FE"/>
<path d="M90.7441 46.5531H41.8885C40.2577 46.5531 38.9358 47.8732 38.9358 49.5017C38.9358 51.1303 40.2577 52.4504 41.8885 52.4504H90.7441C92.3749 52.4504 93.6968 51.1303 93.6968 49.5017C93.6968 47.8732 92.3749 46.5531 90.7441 46.5531Z" fill="#CAE6FE"/>
<path d="M90.7441 59.3294H41.8885C40.2577 59.3294 38.9358 60.6495 38.9358 62.2781C38.9358 63.9066 40.2577 65.2267 41.8885 65.2267H90.7441C92.3749 65.2267 93.6968 63.9066 93.6968 62.2781C93.6968 60.6495 92.3749 59.3294 90.7441 59.3294Z" fill="#CAE6FE"/>
<path d="M90.7441 72.1046H41.8885C40.2577 72.1046 38.9358 73.4247 38.9358 75.0532C38.9358 76.6818 40.2577 78.0019 41.8885 78.0019H90.7441C92.3749 78.0019 93.6968 76.6818 93.6968 75.0532C93.6968 73.4247 92.3749 72.1046 90.7441 72.1046Z" fill="#CAE6FE"/>
<path d="M171.024 46.5531H122.168C120.537 46.5531 119.215 47.8732 119.215 49.5017C119.215 51.1303 120.537 52.4504 122.168 52.4504H171.024C172.655 52.4504 173.977 51.1303 173.977 49.5017C173.977 47.8732 172.655 46.5531 171.024 46.5531Z" fill="#CAE6FE"/>
<path d="M171.024 59.3294H122.168C120.537 59.3294 119.215 60.6495 119.215 62.2781C119.215 63.9066 120.537 65.2267 122.168 65.2267H171.024C172.655 65.2267 173.976 63.9066 173.976 62.2781C173.976 60.6495 172.655 59.3294 171.024 59.3294Z" fill="#CAE6FE"/>
<path d="M171.024 72.1046H122.168C120.537 72.1046 119.215 73.4247 119.215 75.0532C119.215 76.6818 120.537 78.0019 122.168 78.0019H171.024C172.655 78.0019 173.976 76.6818 173.976 75.0532C173.976 73.4247 172.655 72.1046 171.024 72.1046Z" fill="#CAE6FE"/>
<path d="M142.768 301.797H67.7281C62.9665 301.797 59.1074 297.942 59.1074 293.188V281.943C59.1074 277.188 62.9675 273.334 67.7281 273.334H142.768C147.529 273.334 151.388 277.188 151.388 281.943V293.188C151.389 297.942 147.529 301.797 142.768 301.797Z" fill="#2A365C"/>
<path d="M47.6218 10.5988L55.6861 22.8516C57.9356 26.2695 61.7565 28.328 65.853 28.328H143.785C147.88 28.328 151.702 26.2695 153.951 22.8516L162.015 10.5988C162.015 9.32896 160.975 8.28814 159.701 8.28814H49.9357C48.6651 8.28814 47.6218 9.32997 47.6218 10.5988Z" fill="#2A365C"/>
<path d="M131.296 19.4587H64.5202C63.163 19.4587 62.0534 18.3495 62.0534 16.9952C62.0534 15.64 63.164 14.5318 64.5202 14.5318H131.296C132.653 14.5318 133.763 15.641 133.763 16.9952C133.763 18.3495 132.652 19.4587 131.296 19.4587Z" fill="#445279"/>
<path d="M146.853 16.8308C146.853 18.4634 145.527 19.7875 143.893 19.7875C142.258 19.7875 140.932 18.4644 140.932 16.8308C140.932 15.1982 142.257 13.8741 143.893 13.8741C145.528 13.8741 146.853 15.1982 146.853 16.8308Z" fill="#445279"/>
<path d="M175.443 138.363H34.9892V202.089H175.443V138.363Z" fill="#009EF3"/>
<path d="M175.443 138.363H34.9892V143.423H175.443V138.363Z" fill="#007CE6"/>
<path d="M175.443 134.573H34.9892L45.9237 108.721H164.507L175.443 134.573Z" fill="#445279"/>
<path d="M179.898 134.398H28.7488V138.363H179.898V134.398Z" fill="#2A365C"/>
<path d="M134.79 202.09H75.6407V152.659L106.01 136.178L134.79 151.039V202.09Z" fill="#009EF3"/>
<path d="M77.2344 157.164H72.2606V202.09H77.2344V157.164Z" fill="#007CE6"/>
<path d="M138.236 157.164H133.262V202.09H138.236V157.164Z" fill="#007CE6"/>
<path d="M115.333 168.821H95.0973V202.174H115.333V168.821Z" fill="#2A365C"/>
<path d="M113.296 170.855H97.1335V202.174H113.296V170.855Z" fill="#445279"/>
<path d="M112.261 187.464C112.261 188.4 111.502 189.159 110.564 189.159C109.626 189.159 108.867 188.4 108.867 187.464C108.867 186.528 109.626 185.769 110.564 185.769C111.502 185.769 112.261 186.528 112.261 187.464Z" fill="#2A365C"/>
<path d="M117.708 168.821H92.724C91.891 168.821 91.2159 168.147 91.2159 167.315V166.331H119.217V167.315C119.216 168.147 118.541 168.821 117.708 168.821Z" fill="#2A365C"/>
<path d="M104.323 173.154H99.3365V183.293H104.323V173.154Z" fill="#CAE6FE"/>
<path d="M104.323 173.554V176.554L99.3366 181.532V178.533L104.323 173.554Z" fill="#FEFDFF"/>
<path opacity="0.2" d="M104.323 173.154H99.3365V174.587H104.323V173.154Z" fill="black"/>
<path d="M111.361 173.154H106.374V183.293H111.361V173.154Z" fill="#CAE6FE"/>
<path d="M111.361 173.554V176.554L106.374 181.532V178.533L111.361 173.554Z" fill="#FEFDFF"/>
<path opacity="0.2" d="M111.361 173.154H106.374V174.587H111.361V173.154Z" fill="black"/>
<path d="M179.898 134.426H28.7488V132.29C28.7488 130.484 30.2146 129.02 32.0234 129.02H176.625C178.433 129.02 179.899 130.484 179.899 132.29V134.426H179.898Z" fill="#2A365C"/>
<path d="M149.718 157.21L141.619 157.187L133.196 157.164L105.216 138.327L77.2342 157.164L68.8128 157.187L60.7122 157.21L105.216 127.252L149.718 157.21Z" fill="#445279"/>
<path d="M141.619 157.188L133.197 157.165L105.216 138.327L77.2343 157.165L68.8128 157.188L105.216 132.681L141.619 157.188Z" fill="#2A365C"/>
<path d="M60.9324 165.825H49.004V188.055H60.9324V165.825Z" fill="#CAE6FE"/>
<path d="M60.9324 165.825H56.7282L49.0361 173.506V179.783L60.9324 167.903V165.825Z" fill="#FEFDFF"/>
<path d="M60.9324 175.225L49.0361 187.106V188.055H51.2263L60.9324 178.363V175.225Z" fill="#FEFDFF"/>
<path d="M47.3741 164.197V189.681H60.9323V164.197H47.3741ZM49.0049 165.823H59.2724V176.099H49.0049V165.823ZM49.0049 188.053V177.778H59.2724V188.053H49.0049Z" fill="#445279"/>
<path opacity="0.2" d="M60.9314 164.336H47.3742V166.96H60.9314V164.336Z" fill="black"/>
<path d="M62.3126 164.197H45.9949C45.3058 164.197 44.7474 163.639 44.7474 162.951V162.137H63.5601V162.951C63.5601 163.639 63.0008 164.197 62.3126 164.197Z" fill="#2A365C"/>
<path d="M60.9323 189.681H47.3741V192.289H60.9323V189.681Z" fill="#007CE6"/>
<path d="M165.903 165.825H153.975V188.055H165.903V165.825Z" fill="#CAE6FE"/>
<path d="M165.903 165.825H161.7L154.007 173.506V179.783L165.903 167.903V165.825Z" fill="#FEFDFF"/>
<path d="M165.903 175.225L154.007 187.106V188.055H156.197L165.903 178.363V175.225Z" fill="#FEFDFF"/>
<path d="M152.345 164.197V189.681H165.903V164.197H152.345ZM153.976 165.823H164.243V176.099H153.976V165.823ZM153.976 188.053V177.778H164.243V188.053H153.976Z" fill="#445279"/>
<path opacity="0.2" d="M165.903 164.336H152.346V166.96H165.903V164.336Z" fill="black"/>
<path d="M167.284 164.197H150.966C150.277 164.197 149.718 163.639 149.718 162.951V162.137H168.531V162.951C168.531 163.639 167.972 164.197 167.284 164.197Z" fill="#2A365C"/>
<path d="M165.903 189.681H152.345V192.289H165.903V189.681Z" fill="#007CE6"/>
<path d="M161.484 113.862H49.7153C49.3219 113.862 49.004 113.543 49.004 113.152V112.223C49.004 111.83 49.323 111.513 49.7153 111.513H161.484C161.876 111.513 162.195 111.831 162.195 112.223V113.152C162.195 113.544 161.876 113.862 161.484 113.862Z" fill="#2A365C"/>
<path d="M162.98 120.038H47.3532C46.9598 120.038 46.6419 119.72 46.6419 119.328V118.4C46.6419 118.007 46.9608 117.689 47.3532 117.689H162.981C163.374 117.689 163.692 118.008 163.692 118.4V119.328C163.692 119.72 163.373 120.038 162.98 120.038Z" fill="#2A365C"/>
<path d="M167.819 126.215H43.825C43.4316 126.215 43.1137 125.896 43.1137 125.505V124.576C43.1137 124.184 43.4326 123.866 43.825 123.866H167.819C168.212 123.866 168.53 124.184 168.53 124.576V125.505C168.531 125.896 168.212 126.215 167.819 126.215Z" fill="#2A365C"/>
<path d="M69.8377 100.558H54.1538V118.226H69.8377V100.558Z" fill="#009EF3"/>
<path d="M69.8377 100.558H54.1538V105.097H69.8377V100.558Z" fill="#007CE6"/>
<path d="M73.1125 94.5803V96.679C73.1125 96.9845 73.0763 97.2828 73.0079 97.5692C72.6054 99.2811 71.0642 100.558 69.2282 100.558H54.7636C52.9266 100.558 51.3853 99.2811 50.9839 97.5692C50.9155 97.2828 50.8793 96.9845 50.8793 96.679V94.5803H73.1125Z" fill="#445279"/>
<path d="M73.0079 97.5693C72.6054 99.2812 71.0642 100.558 69.2282 100.558H54.7636C52.9266 100.558 51.3853 99.2812 50.9839 97.5693H73.0079Z" fill="#2A365C"/>
<path d="M178.045 206.043H32.2115C31.5505 206.043 31.0143 205.507 31.0143 204.847V203.286C31.0143 202.626 31.5505 202.091 32.2115 202.091H178.045C178.706 202.091 179.242 202.626 179.242 203.286V204.847C179.242 205.507 178.707 206.043 178.045 206.043Z" fill="#445279"/>
<path d="M181.751 209.932H28.5063C27.8453 209.932 27.3091 209.396 27.3091 208.736V207.175C27.3091 206.515 27.8453 205.98 28.5063 205.98H181.751C182.412 205.98 182.948 206.515 182.948 207.175V208.736C182.948 209.397 182.412 209.932 181.751 209.932Z" fill="#2A365C"/>
<path d="M77.2341 157.211V163.214L105.6 144.981L133.262 163.214L133.196 157.211L105.216 138.374L77.2341 157.211Z" fill="#007CE6"/>
<path d="M34.4371 242.172L44.5678 250.102C45.8496 251.103 47.7004 250.879 48.7007 249.6L68.786 223.981L77.0931 213.387L62.3261 201.827L57.4049 208.103L33.9327 238.042C32.9302 239.318 33.1563 241.168 34.4371 242.172Z" fill="#61B3FF"/>
<path d="M57.4058 208.103C59.4251 212.99 62.9194 219.143 68.7869 223.981L77.094 213.387L62.327 201.827L57.4058 208.103Z" fill="#009EF3"/>
<path d="M44.0862 249.724L41.775 252.673L12.0202 290.626C10.0376 293.154 6.3799 293.595 3.84665 291.615C1.31723 289.632 0.869062 285.977 2.85227 283.45L29.7987 249.08L34.9182 242.548L44.0862 249.724Z" fill="#2A365C"/>
<path d="M44.086 249.724L41.7749 252.673L29.7985 249.08L34.9181 242.548L44.086 249.724Z" fill="#16162F"/>
<path d="M57.6281 137.533C39.5592 160.34 43.4293 193.478 66.2778 211.55C89.1258 229.621 122.296 225.78 140.366 202.973C158.436 180.165 154.566 147.025 131.718 128.953C108.869 110.883 75.6986 114.725 57.6281 137.533ZM63.9719 142.551C79.2472 123.271 107.386 120.011 126.7 135.287C146.014 150.563 149.296 178.676 134.021 197.955C118.748 217.233 90.6088 220.492 71.2951 205.216C51.982 189.942 48.6986 161.829 63.9719 142.551Z" fill="#445279"/>
<path opacity="0.5" d="M55.9708 158.279C49.3818 181.971 63.3211 206.621 87.0468 213.224C89.0811 213.791 91.1252 214.207 93.1637 214.477C98.4446 215.18 103.691 214.916 108.695 213.798C113.913 212.633 118.867 210.542 123.316 207.66C130.311 203.135 136.063 196.654 139.659 188.74C140.602 186.666 141.395 184.491 142.025 182.228C148.615 158.533 134.675 133.883 110.95 127.28C108.684 126.649 106.409 126.205 104.14 125.939C95.4948 124.926 86.9635 126.499 79.4722 130.143C74.7022 132.457 70.3513 135.613 66.6599 139.474C63.1179 143.175 60.181 147.524 58.0569 152.402C57.2341 154.285 56.5355 156.247 55.9708 158.279Z" fill="#FEFDFF"/>
<path opacity="0.5" d="M79.4703 130.143L123.315 207.66C130.311 203.135 136.062 196.654 139.658 188.74L104.139 125.939C95.493 124.926 86.9616 126.498 79.4703 130.143Z" fill="#FEFDFF"/>
<path opacity="0.5" d="M58.055 152.401L93.1637 214.477C98.4447 215.18 103.691 214.916 108.695 213.798L66.659 139.474C63.1161 143.174 60.1792 147.524 58.055 152.401Z" fill="#FEFDFF"/>
<path d="M188.37 270.577L184.608 273.522C184.132 273.894 183.445 273.811 183.073 273.336L175.614 263.822L172.529 259.888L178.013 255.595L179.841 257.925L188.558 269.044C188.93 269.518 188.846 270.204 188.37 270.577Z" fill="#61B3FF"/>
<path d="M179.841 257.925C179.091 259.74 177.793 262.025 175.614 263.822L172.529 259.888L178.013 255.594L179.841 257.925Z" fill="#009EF3"/>
<path d="M184.787 273.382L185.645 274.477L196.695 288.571C197.431 289.51 198.79 289.674 199.73 288.938C200.67 288.202 200.836 286.845 200.1 285.906L190.093 273.143L188.192 270.717L184.787 273.382Z" fill="#2A365C"/>
<path d="M184.787 273.382L185.645 274.477L190.093 273.143L188.192 270.717L184.787 273.382Z" fill="#16162F"/>
<path d="M179.758 231.718C186.468 240.188 185.031 252.494 176.546 259.205C168.061 265.916 155.743 264.49 149.032 256.02C142.322 247.55 143.759 235.243 152.244 228.532C160.729 221.821 173.047 223.248 179.758 231.718ZM177.402 233.582C171.73 226.422 161.28 225.211 154.107 230.884C146.935 236.557 145.716 246.997 151.389 254.156C157.061 261.315 167.51 262.526 174.683 256.853C181.855 251.181 183.074 240.741 177.402 233.582Z" fill="#445279"/>
<path opacity="0.5" d="M180.373 239.422C182.82 248.221 177.644 257.375 168.833 259.827C168.077 260.037 167.318 260.192 166.561 260.292C164.6 260.553 162.652 260.455 160.794 260.04C158.856 259.607 157.016 258.831 155.364 257.761C152.766 256.08 150.63 253.673 149.295 250.734C148.945 249.964 148.65 249.156 148.416 248.316C145.969 239.517 151.145 230.363 159.956 227.911C160.798 227.676 161.643 227.511 162.485 227.413C165.696 227.036 168.864 227.62 171.646 228.974C173.417 229.833 175.033 231.005 176.404 232.439C177.719 233.813 178.81 235.429 179.599 237.24C179.904 237.939 180.164 238.668 180.373 239.422Z" fill="#FEFDFF"/>
<path opacity="0.5" d="M171.647 228.974L155.364 257.76C152.766 256.08 150.631 253.673 149.295 250.734L162.486 227.413C165.696 227.036 168.865 227.62 171.647 228.974Z" fill="#FEFDFF"/>
<path opacity="0.5" d="M179.599 237.24L166.561 260.292C164.6 260.553 162.652 260.455 160.793 260.04L176.404 232.439C177.72 233.813 178.81 235.428 179.599 237.24Z" fill="#FEFDFF"/>
</svg>
