<svg width="36" height="35" viewBox="0 0 36 35" fill="none" xmlns="http://www.w3.org/2000/svg">
<path d="M17.9999 11.1348L27.2828 17.9797V25.6602L22.9972 29.9862V20.1756L17.9999 16.4922L13.0026 20.1756V29.9862L8.71707 25.6602V17.9797L17.9999 11.1348ZM17.9999 8.56295L7.50409 16.3036L6.66202 16.9259V26.5201L15.0627 35V21.2324L17.9999 19.0669L20.9371 21.2324V34.9997L29.3378 26.5197V16.9256L28.4958 16.3032L18.0378 8.59062L17.9999 8.56295Z" fill="#1F00A4"/>
<path d="M0 29.9856V13.2702L17.9999 0L36 13.2702V29.9856L34.0629 28.03L33.6478 27.611L33.2327 27.192L32.5409 26.4937L32.1258 26.0747L31.5722 25.516V15.5405L17.9999 5.53444L4.42761 15.5405V25.516L2.62898 27.3318L1.52203 28.4492L1.10695 28.8682L0 29.9856Z" fill="#1F00A4"/>
</svg>
